<svg xmlns="http://www.w3.org/2000/svg" xmlns:xlink="http://www.w3.org/1999/xlink" viewBox="0 157 1919.7 921.654">
  <defs>
    <style>
      .cls-1 {
        opacity: 0.316;
      }

      .cls-2 {
        fill: #deb490;
      }

      .cls-3 {
        clip-path: url(#clip-path);
      }

      .cls-4 {
        fill: #af8566;
      }

      .cls-5 {
        fill: #895945;
      }

      .cls-6 {
        clip-path: url(#clip-path-2);
      }
    </style>
    <clipPath id="clip-path">
      <rect id="Rectangle_27" data-name="Rectangle 27" width="1919.7" height="848.445"/>
    </clipPath>
    <clipPath id="clip-path-2">
      <rect id="Rectangle_28" data-name="Rectangle 28" width="1919.7" height="72.774"/>
    </clipPath>
  </defs>
  <g id="XMLID_2875_" transform="translate(0 157)">
    <g id="XMLID_2891_" class="cls-1">
      <rect id="XMLID_2929_" class="cls-2" width="1919.7" height="848.445"/>
      <g id="XMLID_2892_">
        <g id="XMLID_2894_" class="cls-3">
          <path id="XMLID_2928_" class="cls-4" d="M1910.294,286.157c-66.62-12.2-140.187-6.972-207.624-1.743-81.742,6.1-162.666,16.124-244.407,22.66-33.514,2.615-67.437,5.229-101.359,4.358-33.514-.872-67.028-3.051-100.542-4.793-65.8-3.051-131.6-6.1-197.406-9.587C913.047,289.643,766.321,282.235,620,287.464c-82.559,3.05-167.979,8.28-248.494,7.408-108.308-.872-217.432-2.615-325.74-.436-6.539,0-13.487.436-20.027.872-2.452,0-9.4,3.05-3.678,2.615,45.367-2.615,91.551-1.307,136.917-1.307,59.263,0,118.934.436,178.2.871,77.246.436,154.083-3.05,231.737-5.665,44.549-1.743,89.1-3.486,134.056-3.486,88.281.436,176.97,3.05,265.251,6.972,80.516,3.486,160.622,7.844,241.138,11.766,60.489,2.615,121.795,8.28,182.284,6.1,76.02-2.615,151.631-12.2,226.833-19.609,78.063-7.408,158.578-15.688,237.459-10.894a344.019,344.019,0,0,1,47.41,5.665c1.635.435,9.4-1.743,6.948-2.179Z" transform="translate(7.363 -253.038)"/>
          <path id="XMLID_2927_" class="cls-4" d="M1949.559,289.4c-106.673,12.637-213.754,19.61-321.653,23.532-85.42,3.05-170.431,5.229-255.851,7.408-40.871.872-81.333.872-122.2-1.307-133.239-6.972-265.251-20.917-398.9-24.839-110.351-3.05-219.476,4.793-329.418,7.408-142.639,3.486-285.278,2.179-427.917,0l-77.246-1.307c-3.678,0-8.992,3.486-3.27,3.922,155.309,3.05,310.618,4.793,465.518,2.179,105.447-1.743,210.076-9.587,315.522-9.151,142.639.872,284.869,14.38,426.282,23.967,114.03,7.844,229.285.871,343.315-2.615,111.986-3.486,223.154-8.28,334.323-20.045,16.757-1.743,33.514-3.486,50.271-5.665,4.5-.436,7.357-4.358,1.226-3.486Z" transform="translate(-21.276 -217.495)"/>
          <path id="XMLID_2926_" class="cls-4" d="M11.464,310.73q211.506-7.844,423.421-8.715c120.569-.436,241.955,0,362.524,4.358,110.76,3.922,220.293,16.124,330.644,23.1,73.976,4.793,147.952,9.151,221.928,10.023,67.028.436,133.648-2.179,200.267-6.972C1694.522,322.06,1838.8,315.524,1984.3,316.4c2.043,0,9.809-2.615,5.722-2.615-129.152-.436-258.3,3.486-386.637,12.637-63.35,4.358-126.291,9.587-190.049,10.458-75.611,1.307-150.813-2.179-226.424-6.536-115.256-6.972-230.1-19.174-345.358-24.839-119.751-5.665-240.32-6.1-360.48-6.1q-232.963,0-465.927,8.715c-2.452,0-9.4,2.615-3.678,2.615Z" transform="translate(-25.36 -183.485)"/>
          <path id="XMLID_2925_" class="cls-4" d="M1957.223,288.656c-128.334,6.1-256.26,15.688-383.776,27.889-44.549,4.358-89.507,9.151-134.465,11.766a1543.415,1543.415,0,0,1-190.458-2.615c-63.758-4.794-126.7-13.073-190.049-18.738-70.3-6.537-141-11.33-211.71-14.816-120.978-5.665-242.364-9.587-363.75-10.023-155.718-.436-311.435,4.794-465.927,16.124-4.5.436-6.948,4.358-.817,3.922,263.208-18.738,526.824-18.738,790.849-7.844,68.254,3.05,136.508,6.972,204.354,12.637,67.028,5.665,133.647,13.509,200.676,20.046,107.9,10.023,214.163,8.28,321.653-2.615,140.6-13.945,281.191-24.839,422.6-31.811,4.5-.436,6.948-3.922.818-3.922Z" transform="translate(-15.044 -241.592)"/>
          <path id="XMLID_2924_" class="cls-4" d="M2011.681,316.761c-265.251,12.637-531.729,13.945-797.389,3.05-122.2-5.229-244-13.509-366.2-18.3-120.16-4.793-240.32-7.408-360.889-6.972-159.8.436-320.018,5.229-479.414,14.38-4.5.436-6.948,4.358-.817,3.922,264.843-15.252,531.32-18.738,796.98-9.151,122.612,4.358,245.225,12.637,367.837,18.3,147.952,6.972,295.9,9.587,443.857,9.151q198.019-.654,395.22-10.459c4.9,0,6.948-4.358.818-3.922Z" transform="translate(-43.754 -199.974)"/>
          <path id="XMLID_2923_" class="cls-4" d="M1.182,407.435c85.42.436,171.248,0,256.668-.871,40.053-.436,79.7-1.307,119.751.436,80.107,3.486,159.4,3.486,239.5-1.307,46.184-2.615,91.959-6.972,137.734-9.151q150.2-7.191,301.218-12.638c49.045-1.743,98.09,1.307,147.135,5.665,87.872,7.408,175.744,14.816,264.025,18.3,76.428,3.05,150.813-1.307,226.424-8.716,80.107-7.844,161.848-6.537,241.546.872,27.383,2.615,54.358,6.1,81.333,10.023,2.044.436,9.809-2.179,6.948-2.615A1438.994,1438.994,0,0,0,1766.8,391.747c-33.514,1.307-66.619,3.922-99.725,7.408a1180.757,1180.757,0,0,1-124.247,6.537c-91.959.872-184.327-6.972-275.469-14.38-61.715-5.229-123.021-11.33-185.553-10.894-43.732.436-87.055,3.05-130.787,4.794-58.445,2.614-117.3,4.793-175.744,7.408-26.975,1.307-53.541,3.05-80.515,4.793-89.916,6.1-179.831,11.33-270.156,8.28-39.645-1.307-78.472-3.05-118.117-3.05-74.385.872-148.77,1.307-223.563,1.307H7.313c-2.452.872-10.218,3.486-6.131,3.486Z" transform="translate(-53.905 88.472)"/>
          <path id="XMLID_2922_" class="cls-4" d="M2013.429,385.877c-76.02,0-152.039-.872-228.059-3.922-64.576-2.179-129.152-5.229-193.727-6.1-52.314-.436-104.629,2.615-156.944,2.615-60.489.436-120.977-1.307-181.466-3.922-150-6.537-301.218-8.28-451.213-.436-102.994,5.229-204.763,18.3-307.757,23.532-161.848,7.844-324.514,3.05-485.953-6.972-3.27,0-8.992,3.05-3.27,3.486,148.77,9.151,298.357,13.945,447.535,8.28,95.638-3.486,189.232-14.816,284.46-21.353,157.761-10.894,317.157-10.894,475.736-4.793,54.767,2.179,109.942,4.793,164.709,5.229,56.4.436,111.986-1.743,167.979-2.615,71.115-.871,142.639,2.179,213.754,5.229,83.785,3.05,167.57,4.794,251.355,4.358,2.452.872,8.583-2.615,2.861-2.615Z" transform="translate(-45.911 49.894)"/>
          <path id="XMLID_2921_" class="cls-4" d="M2014.492,375.926a4033.675,4033.675,0,0,0-435.682-18.3c-135.691,1.307-269.338,11.766-403.8,23.967C975.965,399.458,774.064,401.2,573.8,399.458,385.383,397.715,196.56,391.614,8.554,382.9c-2.044,0-9.809,2.615-5.313,2.615,293.452,13.073,588.539,22.224,882.4,14.381,85.829-2.179,171.657-6.1,257.077-13.073,35.558-3.051,71.115-6.537,106.673-10.023q126.291-11.766,253.808-14.816a4082.679,4082.679,0,0,1,505.98,16.995c2.044,0,9.809-2.614,5.313-3.05Z" transform="translate(-48.199 11.038)"/>
          <path id="XMLID_2920_" class="cls-4" d="M1.148,359.146c86.237.436,172.475,0,259.121-.872,39.236-.436,78.063-1.307,117.3.436,80.107,3.486,159.4,3.486,239.5-1.307,46.184-2.615,91.959-6.972,137.734-9.151,100.133-4.794,200.675-9.587,301.218-12.637,49.454-1.743,100.133,1.743,149.587,5.665,87.055,7.408,174.109,14.38,261.573,17.867,39.236,1.307,78.881,1.743,118.116,0,37.193-1.743,73.567-5.665,110.76-9.151,80.516-7.408,163.074-6.1,243.59,1.743,25.749,2.615,51.5,5.665,76.837,9.587,2.043.436,9.4-1.743,6.948-2.179-85.011-12.637-172.475-18.738-259.121-15.252-32.7,1.307-64.984,3.922-96.864,7.408a1245.6,1245.6,0,0,1-127.925,6.536c-91.959.436-184.327-6.972-275.469-14.816-61.715-5.229-122.612-11.33-184.736-10.458-42.506.436-85.42,3.05-127.926,4.793-58.445,2.615-117.3,4.794-175.744,7.408-26.975,1.307-53.541,3.051-80.516,4.794-89.916,6.1-179.831,11.33-270.156,8.28-40.053-1.307-79.289-3.051-119.343-2.615q-110.964,1.307-221.928,1.307H8.1c-2.861.436-11.035,2.614-6.948,2.614Z" transform="translate(-53.871 -72.409)"/>
          <path id="XMLID_2919_" class="cls-4" d="M2013.391,343.277c-76.02,0-152.039-.872-228.059-3.922-64.576-2.179-129.152-5.229-193.727-6.1-52.315-.436-104.629,2.615-156.944,2.615-60.489.436-120.978-1.307-181.466-3.922-150-6.537-301.218-8.28-451.213-.436-102.994,5.229-204.763,18.3-307.757,23.531-161.848,7.844-324.514,3.05-485.953-6.972-3.678-.436-8.992,3.486-3.27,3.922,147.952,9.151,296.722,13.945,445.083,8.715C546.54,357.221,640.951,345.891,737,339.355c157.761-10.894,317.157-10.894,475.736-4.793,54.767,2.179,109.942,4.793,164.709,5.229,56.4.436,111.986-1.743,167.979-2.615,71.115-.872,142.639,2.179,213.754,5.229,83.785,3.05,167.57,4.794,251.355,4.358,3.27,0,8.991-3.486,2.861-3.486Z" transform="translate(-46.282 -93.144)"/>
          <path id="XMLID_2918_" class="cls-4" d="M2013.174,338.526a4033.662,4033.662,0,0,0-435.682-18.3q-134.26,1.307-268.112,11.766c-45.775,3.486-90.733,8.28-136.508,12.2-198.632,17.867-400.125,19.61-599.983,17.867C384.474,360.315,196.06,354.214,7.645,345.5c-4.087,0-8.992,3.922-2.861,4.358,293.452,13.073,588.539,22.224,882.809,14.38,86.237-2.179,172.475-6.1,257.894-13.073,35.966-3.05,71.933-6.972,107.9-10.023,83.376-7.408,167.161-12.637,251.355-14.816a4073.437,4073.437,0,0,1,505.571,17c4.087,0,8.583-4.358,2.861-4.793Z" transform="translate(-48.108 -114.54)"/>
          <path id="XMLID_2917_" class="cls-4" d="M1979.96,348.724c-150,4.358-299.991,6.1-450.4,4.358-155.718-1.743-311.026-4.358-466.744,1.307-80.924,3.05-161.44,8.28-242.364,11.33-96.864,3.486-193.727,5.229-290.591,6.537-173.7,1.743-347.4.871-520.694-.872-3.678,0-8.992,3.922-3.27,3.922,260.347,3.05,521.511,4.358,781.858-4.358,73.976-2.615,147.952-6.972,222.337-10.458,157.352-6.972,314.7-6.1,472.057-3.922q248.29,3.922,496.989-3.486c4.5-.436,6.539-4.793.818-4.358Z" transform="translate(-43.503 -17.974)"/>
          <path id="XMLID_2916_" class="cls-4" d="M1982.191,311.6c-150.4,4.358-300.809,6.1-451.213,4.358-156.944-1.743-313.07-4.358-470.014,1.307-80.107,3.05-160.213,8.28-240.32,11.33-97.272,3.486-194.953,5.229-292.226,6.537-172.883,1.743-345.358.872-518.241-.872-1.635,0-9.809,2.179-5.722,2.179,260.755,3.05,522.737,4.358,783.493-4.358,73.567-2.615,147.135-6.972,220.7-10.023,155.717-6.536,311.435-6.536,467.153-3.922q250.129,3.922,500.667-3.486c2.043-.872,9.809-3.05,5.722-3.05Z" transform="translate(-43.691 -142.521)"/>
          <path id="XMLID_2915_" class="cls-4" d="M1987.452,352.78c-258.3-14.38-518.241-15.688-776.544-2.615-119.751,6.1-239.5,15.252-359.254,21.789q-188.21,10.458-376.828,12.637-233.576,2.615-467.153-7.408c-3.678,0-8.992,3.486-3.27,3.922C267.61,392,531.635,391.564,794.434,378.491c120.977-6.1,241.546-15.252,362.115-22.224q210.893-11.766,422.6-11.766,202.924,0,405.029,11.33c4.087.872,9.4-3.05,3.27-3.05Z" transform="translate(-48.134 -43.383)"/>
          <path id="XMLID_2914_" class="cls-4" d="M1988.8,326.18c-259.529-14.38-521.1-15.688-781.04-2.615-117.3,6.1-234.189,14.816-351.489,21.353q-191.888,11.112-384.185,13.073Q239.737,360.606,7.8,350.583c-2.861,0-9.4,3.05-3.678,3.05,264.434,10.894,529.685,10.459,793.71-2.615,118.117-6.1,236.233-14.816,354.35-21.789,140.187-7.844,280.782-12.2,421.377-11.766,136.508,0,273.425,3.922,409.525,11.33,2.861.436,10.218-2.179,5.722-2.615Z" transform="translate(-48.258 -132.698)"/>
          <path id="XMLID_2913_" class="cls-4" d="M3.052,358.929q397.264,11.112,794.528-.436c120.16-3.486,239.911-9.151,360.071-12.637q179.014-5.229,358.028-5.229,241.546,0,483.093,8.28c1.635,0,9.809-2.179,5.722-2.179-264.434-9.151-529.276-11.33-793.71-4.358-120.569,3.051-241.138,8.28-361.706,12.2-148.77,4.794-297.131,7.408-445.9,7.408q-197.406,0-393.994-5.665c-2.044,0-10.218,2.179-6.131,2.615Z" transform="translate(-48.01 -53.018)"/>
          <path id="XMLID_2912_" class="cls-4" d="M2006.105,311.961c-262.8,28.761-530.094,39.219-796.163,28.761-114.438-4.793-228.468-14.38-342.5-21.353-146.726-9.151-294.269-13.945-441.813-14.816-138.143-1.307-277.1,1.307-415.247,7.408-4.9,0-6.948,4.358-.817,3.922a8101.346,8101.346,0,0,1,816.6,4.793c115.256,6.537,230.1,16.559,345.358,22.224,116.891,5.665,234.189,6.972,351.08,4.358,161.439-3.486,322.879-13.945,482.275-31.376,4.9-.436,7.357-4.358,1.226-3.922Z" transform="translate(-36.134 -167.286)"/>
          <path id="XMLID_2911_" class="cls-4" d="M1910.294,360.657c-66.62-12.2-140.187-6.972-207.624-1.743-81.742,6.1-162.666,16.124-244.407,22.66-33.514,2.615-67.437,5.229-101.359,4.358-33.514-.872-67.028-3.051-100.542-4.794-65.8-3.05-131.6-6.1-197.406-9.587C913.047,364.143,766.321,356.735,620,361.964c-82.559,3.05-167.979,8.28-248.494,7.408-108.308-.872-217.432-2.615-325.74-.436-6.539,0-13.487.436-20.027.872-2.452,0-9.4,3.05-3.678,2.615,45.367-2.615,91.551-1.307,136.917-1.307,59.263,0,118.934.436,178.2.871,77.246.436,154.083-3.05,231.737-5.665,44.549-1.743,89.1-3.486,134.056-3.486,88.281.436,176.97,3.05,265.251,6.972,80.516,3.486,160.622,7.844,241.138,11.766,60.489,2.615,121.795,8.28,182.284,6.1,76.02-2.615,151.631-12.2,226.833-19.61,78.063-7.408,158.578-15.688,237.459-10.894a343.967,343.967,0,0,1,47.41,5.665c1.635.871,9.4-1.744,6.948-2.179Z" transform="translate(7.363 -2.889)"/>
          <path id="XMLID_2910_" class="cls-4" d="M1949.559,374.6c-106.673,12.637-213.754,19.61-321.653,23.531-85.42,3.051-170.431,5.229-255.851,7.408-40.871.872-81.333.872-122.2-1.307-133.239-6.972-265.251-20.917-398.9-24.839-110.351-3.05-219.476,4.794-329.418,7.408-142.639,3.486-285.278,2.179-427.917,0l-77.246-1.307c-3.678,0-8.992,3.486-3.27,3.922,155.309,3.05,310.618,4.793,465.518,2.179,105.447-1.743,210.076-9.587,315.522-9.151,142.639.872,284.869,14.38,426.282,23.967,114.03,7.844,229.285.871,343.315-2.615,111.986-3.486,223.154-8.28,334.323-20.045,16.757-1.743,33.514-3.486,50.271-5.665,4.5-.436,7.357-4.358,1.226-3.486Z" transform="translate(-21.276 68.581)"/>
          <path id="XMLID_2909_" class="cls-4" d="M11.464,401.23q211.506-7.844,423.421-8.715c120.569-.436,241.955,0,362.524,4.358,110.76,3.922,220.293,16.124,330.644,23.1,73.976,4.794,147.952,9.151,221.928,10.023,67.028.436,133.648-2.179,200.267-6.972,144.274-10.459,288.548-17,434.048-16.124,2.043,0,9.809-2.615,5.722-2.615-129.152-.436-258.3,3.486-386.637,12.637-63.35,4.358-126.291,9.587-190.049,10.458-75.611,1.307-150.813-2.179-226.424-6.537-115.256-6.972-230.1-19.174-345.358-24.839-119.751-5.665-240.32-6.1-360.48-6.1q-232.963,0-465.927,8.715c-2.452,0-9.4,3.051-3.678,2.615Z" transform="translate(-25.36 120.387)"/>
          <path id="XMLID_2908_" class="cls-4" d="M1957.223,368.556c-128.334,6.1-256.26,15.688-383.776,27.889-44.549,4.358-89.507,9.151-134.465,11.766a1543.427,1543.427,0,0,1-190.458-2.615c-63.758-4.793-126.7-13.073-190.049-18.738-70.3-6.537-141-11.33-211.71-14.816-120.978-5.665-242.364-9.587-363.75-10.023-155.718-.436-311.435,4.794-465.927,16.124-4.5.436-6.948,4.358-.817,3.922,263.208-18.738,526.824-18.738,790.849-7.844,68.254,3.05,136.508,6.972,204.354,12.637,67.028,5.665,133.647,13.509,200.676,20.046,107.9,10.023,214.163,8.28,321.653-2.615,140.6-13.945,281.191-24.839,422.6-31.811,4.5-.436,6.948-4.358.818-3.922Z" transform="translate(-15.044 26.688)"/>
          <path id="XMLID_2907_" class="cls-4" d="M2011.681,407.26c-265.251,12.637-531.729,13.945-797.389,3.05-122.2-5.229-244-13.509-366.2-18.3-120.16-4.794-240.32-7.408-360.889-6.972-159.8.436-320.018,5.229-479.414,14.38-4.5.436-6.948,4.358-.817,3.922,264.843-15.252,531.32-18.738,796.98-9.151,122.612,4.358,245.225,12.638,367.837,18.3,147.952,6.972,295.9,9.587,443.857,9.151q198.019-.654,395.22-10.458c4.9,0,6.948-3.922.818-3.922Z" transform="translate(-43.754 103.898)"/>
          <path id="XMLID_2906_" class="cls-4" d="M1.182,481.935c85.42.436,171.248,0,256.668-.872,40.053-.436,79.7-1.307,119.751.436,80.107,3.486,159.4,3.486,239.5-1.307,46.184-2.615,91.959-6.972,137.734-9.151q150.2-7.19,301.218-12.637c49.045-1.743,98.09,1.307,147.135,5.665,87.872,7.408,175.744,14.816,264.025,18.3,76.428,3.051,150.813-1.307,226.424-8.715,80.107-7.844,161.848-6.536,241.546.872,27.383,2.615,54.358,6.1,81.333,10.023,2.044.436,9.809-2.179,6.948-2.615A1438.955,1438.955,0,0,0,1766.8,466.247c-33.514,1.307-66.619,3.922-99.725,7.408a1180.708,1180.708,0,0,1-124.247,6.537c-91.959.872-184.327-6.972-275.469-14.38-61.715-5.229-123.021-11.33-185.553-10.894-43.732.436-87.055,3.05-130.787,4.794-58.445,2.614-117.3,4.794-175.744,7.408-26.975,1.307-53.541,3.05-80.515,4.794-89.916,6.1-179.831,11.33-270.156,8.28-39.645-1.307-78.472-3.05-118.117-3.05-74.385.872-148.77,1.307-223.563,1.307H7.313c-2.452.872-10.218,3.486-6.131,3.486Z" transform="translate(-53.905 338.621)"/>
          <path id="XMLID_2905_" class="cls-4" d="M2013.429,465.777c-76.02,0-152.039-.872-228.059-3.922-64.576-2.179-129.152-5.229-193.727-6.1-52.314-.436-104.629,2.615-156.944,2.615-60.489.436-120.977-1.307-181.466-3.922-150-6.537-301.218-8.28-451.213-.436-102.994,5.229-204.763,18.3-307.757,23.532-161.848,7.844-324.514,3.05-485.953-6.972-3.27,0-8.992,3.05-3.27,3.486C153.81,483.208,303.4,488,452.575,482.336c95.638-3.486,189.232-14.816,284.46-21.353,157.761-10.894,317.157-10.894,475.736-4.793,54.767,2.179,109.942,4.793,164.709,5.229,56.4.436,111.986-1.743,167.979-2.615,71.115-.872,142.639,2.179,213.754,5.229,83.785,3.051,167.57,4.794,251.355,4.358,2.452.872,8.583-2.615,2.861-2.615Z" transform="translate(-45.911 318.174)"/>
          <path id="XMLID_2904_" class="cls-4" d="M2014.492,461.126a4033.683,4033.683,0,0,0-435.682-18.3c-135.691,1.307-269.338,11.766-403.8,23.967C975.965,484.658,774.064,486.4,573.8,484.658,385.383,482.915,196.56,476.814,8.554,468.1c-2.044,0-9.809,2.615-5.313,2.615,293.452,13.073,588.539,22.224,882.4,14.38,85.829-2.179,171.657-6.1,257.077-13.073,35.558-3.05,71.115-6.537,106.673-10.023q126.291-11.766,253.808-14.816a4082.691,4082.691,0,0,1,505.98,16.995c2.044,0,9.809-2.615,5.313-3.05Z" transform="translate(-48.199 297.114)"/>
          <path id="XMLID_2903_" class="cls-4" d="M1.148,449.647q129.356.653,259.121-.872c39.236-.436,78.063-1.307,117.3.436,80.107,3.486,159.4,3.486,239.5-1.307,46.184-2.615,91.959-6.972,137.734-9.151,100.133-4.794,200.675-9.587,301.218-12.637,49.454-1.743,100.133,1.743,149.587,5.665,87.055,7.408,174.109,14.38,261.573,17.867,39.236,1.307,78.881,1.743,118.116,0,37.193-1.743,73.567-5.665,110.76-9.151,80.516-7.408,163.074-6.1,243.59,1.743,25.749,2.615,51.5,5.665,76.837,9.587,2.043.436,9.4-1.743,6.948-2.179-85.011-12.638-172.475-18.738-259.121-15.252-32.7,1.307-64.984,3.922-96.864,7.408a1245.56,1245.56,0,0,1-127.925,6.537c-91.959.436-184.327-6.972-275.469-14.816-61.715-5.229-122.612-11.33-184.736-10.458-42.506.436-85.42,3.05-127.926,4.794-58.445,2.615-117.3,4.793-175.744,7.408-26.975,1.307-53.541,3.051-80.516,4.793-89.916,6.1-179.831,11.33-270.156,8.28-40.053-1.307-79.289-3.05-119.343-2.615q-110.964,1.308-221.928,1.307H8.1c-2.861.436-11.035,2.615-6.948,2.615Z" transform="translate(-53.871 231.462)"/>
          <path id="XMLID_2902_" class="cls-4" d="M2013.391,433.777c-76.02,0-152.039-.872-228.059-3.922-64.576-2.179-129.152-5.229-193.727-6.1-52.315-.436-104.629,2.615-156.944,2.615-60.489.436-120.978-1.307-181.466-3.922-150-6.536-301.218-8.28-451.213-.436-102.994,5.229-204.763,18.3-307.757,23.532-161.848,7.844-324.514,3.051-485.953-6.972-3.678-.436-8.992,3.486-3.27,3.922,147.952,9.151,296.722,13.945,445.083,8.715C546.54,447.721,640.951,436.391,737,429.855c157.761-10.894,317.157-10.894,475.736-4.794,54.767,2.179,109.942,4.794,164.709,5.229,56.4.436,111.986-1.743,167.979-2.615,71.115-.872,142.639,2.179,213.754,5.229,83.785,3.05,167.57,4.793,251.355,4.358,3.27.436,8.991-3.486,2.861-3.486Z" transform="translate(-46.282 210.728)"/>
          <path id="XMLID_2901_" class="cls-4" d="M2013.174,429.026a4033.67,4033.67,0,0,0-435.682-18.3q-134.26,1.308-268.112,11.766c-45.775,3.486-90.733,8.28-136.508,12.2-198.632,17.867-400.125,19.61-599.983,17.867C384.474,450.815,196.06,444.714,7.645,436c-4.087,0-8.992,3.922-2.861,4.358,293.452,13.073,588.539,22.224,882.809,14.38,86.237-2.179,172.475-6.1,257.894-13.073,35.966-3.05,71.933-6.972,107.9-10.023,83.376-7.408,167.161-12.637,251.355-14.816a4073.431,4073.431,0,0,1,505.571,17c4.087,0,8.583-4.358,2.861-4.794Z" transform="translate(-48.108 189.332)"/>
          <path id="XMLID_2900_" class="cls-4" d="M1979.96,439.2c-150,4.358-299.991,6.1-450.4,4.358-155.718-1.743-311.026-4.358-466.744,1.307-80.924,3.051-161.44,8.28-242.364,11.33-96.864,3.486-193.727,5.229-290.591,6.537-173.7,1.743-347.4.872-520.694-.872-3.678,0-8.992,3.922-3.27,3.922,260.347,3.05,521.511,4.358,781.858-4.358,73.976-2.615,147.952-6.972,222.337-10.458,157.352-6.972,314.7-6.1,472.057-3.922q248.29,3.922,496.989-3.486c4.5-.436,6.539-4.358.818-4.358Z" transform="translate(-43.503 285.922)"/>
          <path id="XMLID_2899_" class="cls-4" d="M1982.191,402.1c-150.4,4.358-300.809,6.1-451.213,4.358-156.944-1.743-313.07-4.358-470.014,1.307-80.107,3.05-160.213,8.28-240.32,11.33-97.272,3.486-194.953,5.229-292.226,6.537-172.883,1.743-345.358.871-518.241-.872-1.635,0-9.809,2.179-5.722,2.179,260.755,3.05,522.737,4.358,783.493-4.358,73.567-2.615,147.135-6.972,220.7-10.023,155.717-6.537,311.435-6.537,467.153-3.922q250.129,3.922,500.667-3.486c2.043-.872,9.809-3.051,5.722-3.051Z" transform="translate(-43.691 161.351)"/>
          <path id="XMLID_2898_" class="cls-4" d="M1987.452,443.28c-258.3-14.38-518.241-15.688-776.544-2.615-119.751,6.1-239.5,15.252-359.254,21.789q-188.21,10.458-376.828,12.637-233.576,2.614-467.153-7.408c-3.678,0-8.992,3.486-3.27,3.922,263.208,10.894,527.233,10.459,790.032-2.615,120.977-6.1,241.546-15.252,362.115-22.224Q1367.442,435,1579.153,435q202.924,0,405.029,11.33c4.087.872,9.4-3.05,3.27-3.05Z" transform="translate(-48.134 260.489)"/>
          <path id="XMLID_2897_" class="cls-4" d="M1988.8,416.68c-259.529-14.38-521.1-15.688-781.04-2.615-117.3,6.1-234.189,14.816-351.489,21.353q-191.888,11.112-384.185,13.073Q239.737,451.106,7.8,441.083c-2.861,0-9.4,3.05-3.678,3.05,264.434,10.894,529.685,10.458,793.71-2.615,118.117-6.1,236.233-14.816,354.35-21.788,140.187-7.844,280.782-12.2,421.377-11.766,136.508,0,273.425,3.922,409.525,11.33,2.861.872,10.218-2.179,5.722-2.615Z" transform="translate(-48.258 171.174)"/>
          <path id="XMLID_2896_" class="cls-4" d="M3.052,449.429q397.264,11.112,794.528-.436c120.16-3.486,239.911-9.151,360.071-12.637q179.014-5.229,358.028-5.229,241.546,0,483.093,8.28c1.635,0,9.809-2.179,5.722-2.179-264.434-9.151-529.276-11.33-793.71-4.358-120.569,3.051-241.138,8.28-361.706,12.2-148.77,4.794-297.131,7.408-445.9,7.408q-197.406,0-393.994-5.665c-2.044,0-10.218,2.615-6.131,2.615Z" transform="translate(-48.01 250.854)"/>
          <path id="XMLID_2895_" class="cls-4" d="M2006.105,402.334c-262.8,28.761-530.094,39.219-796.163,28.761-114.438-4.794-228.468-14.38-342.5-21.353C720.72,400.591,573.176,395.8,425.633,394.926q-207.828-1.307-415.247,7.844c-4.9,0-6.948,4.358-.817,3.922a8101.329,8101.329,0,0,1,816.6,4.793c115.255,6.537,230.1,16.559,345.358,22.224,116.891,5.665,234.189,6.972,351.08,4.358,161.439-3.486,322.879-13.945,482.275-31.375,4.9-.436,7.357-4.794,1.226-4.358Z" transform="translate(-36.134 136.714)"/>
        </g>
      </g>
    </g>
    <g id="XMLID_2876_" transform="translate(0 848.881)">
      <rect id="XMLID_2890_" class="cls-5" width="1919.7" height="72.774"/>
      <g id="XMLID_2877_">
        <g id="XMLID_2879_" class="cls-6">
          <path id="XMLID_2889_" class="cls-4" d="M1851.136,469.589c-64.167-3.486-134.874-2.179-199.858-.436-78.472,1.743-156.535,4.794-235.007,6.536-32.288.872-64.984,1.307-97.272,1.307s-64.576-.872-96.864-1.307l-190.049-2.615c-140.187-2.179-281.6-4.358-422.195-2.615-79.7.872-161.848,2.615-239.094,2.179-104.22-.436-209.258-.872-313.479,0H38.109c-2.452,0-8.992.871-3.678.871,43.732-.871,87.872-.436,131.6-.436,57.219,0,114.438,0,171.657.436,74.385,0,148.361-.871,222.746-1.743,42.914-.436,85.829-1.307,129.152-.871,85.011,0,170.431.871,255.034,2.179,77.246.872,154.491,2.615,232.146,3.486,58.037.872,116.89,2.615,175.335,1.743,73.159-.872,145.909-3.486,218.25-5.665,74.793-2.179,152.448-4.794,228.467-3.05,15.531.436,30.653.871,45.367,1.743,2.043-.872,9.4-1.307,6.948-1.743Z" transform="translate(46.085 -468.282)"/>
          <path id="XMLID_2888_" class="cls-4" d="M1889.064,470.67c-102.994,3.922-205.58,5.665-309.8,6.972-82.15.872-164.3,1.743-246.042,2.179-39.236.436-78.063.436-117.3-.436-127.925-2.179-255.442-6.1-383.776-7.408-106.264-.872-210.893,1.307-316.748,2.179q-205.989,1.308-411.977,0c-24.931,0-49.454-.436-74.385-.436-3.678,0-8.583,1.307-3.27,1.307,149.178.872,298.765,1.307,447.944.436,101.359-.436,202.31-3.05,303.67-2.615,137.326.436,273.834,4.358,410.343,6.972,109.534,2.179,220.7.436,330.236-.872,107.9-.872,214.572-2.615,321.653-6.1,16.348-.436,32.288-.872,48.636-1.743,4.087.436,6.539-.871.818-.436Z" transform="translate(18.375 -457.596)"/>
          <path id="XMLID_2887_" class="cls-4" d="M24.13,477.086q203.536-2.615,407.481-2.615c116.073,0,232.963,0,349.036,1.307,106.673,1.307,211.711,4.793,317.975,6.972,71.115,1.307,142.23,2.615,213.754,3.05,64.576,0,128.743-.436,192.91-2.179,138.961-3.051,277.921-4.794,417.7-4.794,2.044,0,9.4-.872,5.313-.872-124.247,0-248.494.872-371.924,3.922-60.9,1.307-121.386,2.615-182.692,3.05-72.75.436-145.091-.436-217.841-2.179-111.168-2.179-221.111-5.665-332.688-7.408C707.9,473.6,591.825,473.6,476.161,473.6q-224.38,0-448.352,2.615c-2.452,0-8.992.872-3.678.872Z" transform="translate(14.288 -447.454)"/>
          <path id="XMLID_2886_" class="cls-4" d="M1896.229,470.579c-123.43,1.743-246.451,4.793-369.063,8.28-42.915,1.307-86.238,2.615-129.56,3.486-60.9.871-122.612.871-183.1-.872-61.306-1.307-121.795-3.922-182.692-5.665-67.846-1.743-135.691-3.486-203.945-4.358-116.482-1.743-233.372-2.615-349.854-3.05-149.587,0-299.583,1.307-448.352,4.794-4.087,0-6.539,1.307-.817,1.307,253.4-5.665,506.8-5.665,760.605-2.179,65.8.872,131.2,2.179,196.588,3.922,64.576,1.743,128.334,3.922,192.91,6.1,103.812,3.05,205.989,2.615,309.392-.872,135.282-3.922,270.565-7.408,406.664-9.587,4.5-.436,6.948-1.307,1.226-1.307Z" transform="translate(24.697 -464.914)"/>
          <path id="XMLID_2885_" class="cls-4" d="M1948.324,479.072c-255.033,3.922-511.7,4.358-767.144.872-117.708-1.743-235.007-3.922-352.306-5.665q-173.5-1.961-346.993-2.179c-154.083,0-307.757,1.743-461.022,4.358-4.5,0-6.539,1.307-.817,1.307,255.034-4.358,511.293-5.665,766.736-2.615,118.117,1.307,235.824,3.922,353.941,5.665,142.23,2.179,284.869,3.05,427.1,2.615,126.7,0,253.807-1.307,380.1-3.051,4.087-.436,6.13-1.743.409-1.307Z" transform="translate(-2.875 -452.49)"/>
          <path id="XMLID_2884_" class="cls-4" d="M1950.744,486.757q-109.738,0-219.476-1.307c-62.124-.871-124.247-1.743-186.371-1.743-50.271,0-100.542.872-151.222.872-58.445,0-116.482-.436-174.518-1.307-144.274-1.743-289.774-2.615-434.456,0-98.907,1.743-197,5.229-295.9,6.972-155.718,2.615-312.253.872-467.562-2.179-3.678,0-8.583.871-3.27,1.307,142.23,2.615,285.687,3.922,428.326,2.615,92.777-.872,183.918-4.358,275.878-6.537,152.039-3.05,305.3-3.05,457.753-1.307,52.723.436,105.446,1.307,158.578,1.743,53.949,0,107.9-.436,161.848-.871,68.663-.436,136.917.871,205.58,1.307,80.516.871,161.031,1.307,241.955,1.307,2.861,0,8.174-.872,2.861-.872Z" transform="translate(-5.704 -420.521)"/>
          <path id="XMLID_2883_" class="cls-4" d="M1950.526,485.407c-138.96-3.922-279.147-6.1-419.334-5.665-86.237.436-172.475,1.307-257.895,3.486-43.732.872-87.463,2.615-131.2,3.486-190.867,5.229-385,5.665-577.5,5.229q-272.2-.654-543.99-4.793c-4.087,0-8.583,1.307-2.861,1.307,282.417,3.922,566.469,6.536,849.294,4.358,82.968-.872,165.935-1.743,248.086-3.922,34.74-.872,69.072-2.179,103.812-3.051,80.107-2.179,161.031-3.922,241.955-4.358,162.666-1.307,325.331.436,486.771,5.229,3.678,0,8.174-1.307,2.861-1.307Z" transform="translate(-7.53 -427.014)"/>
          <path id="XMLID_2882_" class="cls-4" d="M1920.53,477.2q-217.024,1.961-434.456,1.307c-150.813-.436-301.218-1.307-452.031.436-77.246.872-154.083,2.615-231.329,3.486-93.594.872-187.6,1.743-281.191,1.743q-249.516.654-498.623-.436c-1.635,0-9.4.872-5.313.872,250.947.872,502.71,1.307,753.657-1.307,70.706-.872,141.413-2.179,212.119-3.051,150-2.179,299.583-1.743,449.578-1.307q240.933,1.308,481.866-.871c2.044,0,9.809-.872,5.722-.872Z" transform="translate(-3.282 -435.366)"/>
          <path id="XMLID_2881_" class="cls-4" d="M1926.554,481.643c-249.72-4.358-501.484-4.794-751.613-.872-112.8,1.743-225.2,4.358-338,6.537-123.021,2.179-246.451,3.486-369.472,3.922q-223.767.654-446.717-2.179c-2.861,0-8.992.872-3.27.872,254.216,3.486,509.658,3.05,763.875-.872,113.621-1.743,227.241-4.358,340.862-6.537q202.31-3.268,405.438-3.486,197.406,0,393.994,3.486c2.043,0,9.4-.871,4.9-.871Z" transform="translate(-7.263 -432.401)"/>
          <path id="XMLID_2880_" class="cls-4" d="M1943.576,477.365c-252.99,8.715-510.067,11.766-765.918,8.715-110.351-1.307-219.885-4.358-329.827-6.537-141.413-2.615-283.234-4.358-425.056-4.358q-199.858-.654-399.716,2.179c-4.5,0-6.539,1.307-.817,1.307,261.573-3.486,524.781-3.05,785.945,1.307,110.76,2.179,221.52,4.793,332.279,6.537q168.592,2.614,338,1.307c155.309-.871,310.618-4.358,464.292-9.587,4.5,0,6.539-1.307.817-.871Z" transform="translate(3.917 -442.503)"/>
        </g>
      </g>
    </g>
  </g>
</svg>
