<svg xmlns="http://www.w3.org/2000/svg" viewBox="1407.407 2826.796 144.115 138.897">
  <defs>
    <style>
      .cls-1 {
        fill: #562d15;
      }

      .cls-2 {
        fill: #ebbe44;
      }

      .cls-3 {
        fill: #fce77b;
      }

      .cls-4 {
        fill: #e4ae28;
      }

      .cls-5 {
        fill: #fbd67c;
      }

      .cls-6 {
        fill: #fff;
        font-size: 5px;
        font-family: Aller-Regular, Aller;
      }

      .cls-7 {
        fill: #3e1d11;
      }
    </style>
  </defs>
  <g id="chocolate_chips_2_" transform="translate(1407.407 2826.796)">
    <path id="Path_189" data-name="Path 189" class="cls-1" d="M755.76,550.124c-.482-8.673-6.425-15.9-11.243-22.647-3.212-4.5-5.782-6.585-9.637-10.44-4.819-4.979-9.155-10.6-15.259-13.653-7.71-4.016-15.259-6.425-23.611-8.673-2.57-.642-9.637,0-12.207-.161-4.176-.161-13.653,3.212-17.668,4.5-10.44,3.534-13.813,5.3-23.129,11.565-2.088,1.285-7.228,5.3-8.674,7.388-1.285,1.927-3.373,4.5-4.5,6.585-3.212,6.1-4.979,9.637-8.673,15.419-2.57,4.176-3.855,8.995-5.14,13.813a45.693,45.693,0,0,0-1.446,6.746c-.964,8.031,1.767,14.938,3.694,22.647a68.777,68.777,0,0,0,5.943,15.58,49.08,49.08,0,0,0,7.067,10.28,43.616,43.616,0,0,1,4.979,6.1c6.907,10.922,13.813,10.44,27.466,14.135,18.471,5.14,31,4.819,41.279,1.927,5.14-1.446,8.192-2.891,10.28-3.373,2.57-.643,6.585-1.124,9.155-2.249,6.907-3.052,8.352-3.855,14.135-8.834,1.767-1.446,4.176-6.746,5.461-8.834,2.088-3.212,3.373-4.658,5.14-8.192.964-1.927,3.052-4.5,3.855-6.585,2.409-6.1,5.3-12.689,5.461-19.274C758.491,567.953,756.081,555.906,755.76,550.124Z" transform="translate(-614.375 -494.418)"/>
    <g id="chocolate_chips_3_" transform="translate(40.837 21.654)">
      <g id="Group_2326" data-name="Group 2326" transform="translate(0 9.958)">
        <path id="Path_190" data-name="Path 190" class="cls-2" d="M639.8,514.1v14.777c0,5.3,13.974,9.637,31.321,9.637s31.321-4.337,31.321-9.637h0V514.1Z" transform="translate(-639.8 -514.1)"/>
      </g>
      <g id="Group_2327" data-name="Group 2327" transform="translate(0 24.735)">
        <path id="Path_191" data-name="Path 191" class="cls-3" d="M702.442,582.247V523.3c0,5.3-13.974,9.637-31.321,9.637S639.8,528.6,639.8,523.3v58.947c0,5.3,13.974,11.886,31.321,11.886s31.321-6.586,31.321-11.886Z" transform="translate(-639.8 -523.3)"/>
      </g>
      <g id="Group_2331" data-name="Group 2331" transform="translate(0 9.958)">
        <g id="Group_2328" data-name="Group 2328" transform="translate(51.077)">
          <path id="Path_192" data-name="Path 192" class="cls-4" d="M671.6,515.224v21.2c7.067-1.767,11.565-4.5,11.565-7.549h0V514.1S671.6,522.613,671.6,515.224Z" transform="translate(-671.6 -514.1)"/>
        </g>
        <g id="Group_2329" data-name="Group 2329" transform="translate(51.077 14.616)">
          <path id="Path_193" data-name="Path 193" class="cls-5" d="M671.6,530.749v60.232c7.067-2.409,11.565-5.782,11.565-8.834h0V523.2C683,526.412,678.667,528.982,671.6,530.749Z" transform="translate(-671.6 -523.2)"/>
        </g>
        <g id="Group_2330" data-name="Group 2330" transform="translate(0 14.777)">
          <path id="Path_194" data-name="Path 194" class="cls-3" d="M671.121,532.937c-17.347,0-31.321-4.337-31.321-9.637v58.947c0,5.3,13.974,11.886,31.321,11.886a63.806,63.806,0,0,0,19.756-3.052V530.849A88.738,88.738,0,0,1,671.121,532.937Z" transform="translate(-639.8 -523.3)"/>
        </g>
      </g>
      <g id="Group_2332" data-name="Group 2332">
        <ellipse id="Ellipse_1062" data-name="Ellipse 1062" class="cls-5" cx="31.321" cy="9.637" rx="31.321" ry="9.637"/>
      </g>
      <g id="Group_2333" data-name="Group 2333" transform="translate(13.171 48.668)">
        <ellipse id="Ellipse_1063" data-name="Ellipse 1063" class="cls-4" cx="18.15" cy="12.046" rx="18.15" ry="12.046"/>
      </g>
      <g id="CHOCOLATE_CHIPS_1_" transform="translate(15.643 56.256)">
        <g id="Group_2334" data-name="Group 2334">
          <text id="CHOCOLATE" class="cls-6" transform="translate(0 5)"><tspan x="0" y="0">CHOCOLATE</tspan></text>
          <text id="CHIPS" class="cls-6" transform="translate(8.192 10.461)"><tspan x="0" y="0">CHIPS</tspan></text>
        </g>
      </g>
      <g id="Group_2354" data-name="Group 2354" transform="translate(3.812 39.289)">
        <g id="Group_2335" data-name="Group 2335" transform="translate(30.876 1.434)">
          <path id="Path_195" data-name="Path 195" class="cls-1" d="M666.7,533.65c-1.124-.643-3.212-.482-3.855.321a6.029,6.029,0,0,0-1.446,3.052c-.161,1.285,2.731,3.855,4.5,3.212,1.767-.482,2.891-1.767,2.891-2.891C668.791,536.38,669.273,535.256,666.7,533.65Z" transform="translate(-661.396 -533.253)"/>
          <path id="Path_196" data-name="Path 196" class="cls-7" d="M668.791,536.406a5.354,5.354,0,0,0,0-1.606v.161c0,.964-1.124,2.249-2.891,2.891-1.446.482-3.694-1.124-4.337-2.409,0,.161-.161.482-.161.643-.161,1.285,2.73,3.855,4.5,3.212S668.791,537.531,668.791,536.406Z" transform="translate(-661.396 -532.315)"/>
        </g>
        <g id="Group_2336" data-name="Group 2336" transform="translate(27.343 36.862)">
          <path id="Path_197" data-name="Path 197" class="cls-1" d="M665.306,555.776a4.434,4.434,0,0,0-4.5.321,5.606,5.606,0,0,0-1.606,3.534c-.161,1.446,3.212,4.337,5.14,3.694,2.088-.643,3.373-2.088,3.212-3.212C667.715,558.827,668.357,557.542,665.306,555.776Z" transform="translate(-659.196 -555.31)"/>
          <path id="Path_198" data-name="Path 198" class="cls-7" d="M667.815,558.927a4.1,4.1,0,0,0-.161-1.927v.321c0,1.124-1.285,2.57-3.212,3.212-1.767.482-4.176-1.285-4.979-2.891a6.949,6.949,0,0,0-.161.8c-.161,1.446,3.212,4.337,5.14,3.694C666.53,561.658,667.815,560.212,667.815,558.927Z" transform="translate(-659.136 -554.286)"/>
        </g>
        <g id="Group_2337" data-name="Group 2337" transform="translate(0 18.576)">
          <path id="Path_199" data-name="Path 199" class="cls-1" d="M643.983,544.206a3.229,3.229,0,0,1,3.212.321,4.221,4.221,0,0,1,1.124,2.409c.161,1.124-2.249,3.052-3.694,2.731-1.446-.482-2.409-1.446-2.409-2.249C642.216,546.454,641.735,545.491,643.983,544.206Z" transform="translate(-642.173 -543.926)"/>
          <path id="Path_200" data-name="Path 200" class="cls-7" d="M642.2,546.585v-1.124a2.7,2.7,0,0,0,2.409,2.249c1.285.321,3.052-.964,3.534-2.088a.59.59,0,0,0,.161.482c.161,1.124-2.249,3.052-3.694,2.731C643,548.352,642.2,547.388,642.2,546.585Z" transform="translate(-642.157 -543.092)"/>
        </g>
        <g id="Group_2338" data-name="Group 2338" transform="translate(40.984 6.529)">
          <path id="Path_201" data-name="Path 201" class="cls-1" d="M669.474,536.706a3.229,3.229,0,0,1,3.212.321,4.221,4.221,0,0,1,1.124,2.409c.161,1.124-2.249,3.052-3.694,2.731-1.446-.482-2.409-1.446-2.409-2.249C667.707,538.954,667.385,537.991,669.474,536.706Z" transform="translate(-667.689 -536.426)"/>
          <path id="Path_202" data-name="Path 202" class="cls-7" d="M667.7,538.985v-1.124a2.7,2.7,0,0,0,2.409,2.249c1.285.321,3.052-.964,3.534-2.088a.59.59,0,0,0,.161.482c.161,1.124-2.249,3.052-3.694,2.731S667.7,539.949,667.7,538.985Z" transform="translate(-667.682 -535.653)"/>
        </g>
        <g id="Group_2339" data-name="Group 2339" transform="translate(4.469 27.936)">
          <path id="Path_203" data-name="Path 203" class="cls-1" d="M647.1,550.15c1.124-.643,3.212-.482,3.855.321a5.448,5.448,0,0,1,1.446,3.052c.161,1.285-2.731,3.694-4.5,3.212s-2.891-1.767-2.891-2.731C645.014,552.88,644.532,551.756,647.1,550.15Z" transform="translate(-644.942 -549.753)"/>
          <path id="Path_204" data-name="Path 204" class="cls-7" d="M645.027,553.006a5.358,5.358,0,0,1,0-1.606v.161c0,.964,1.124,2.249,2.891,2.731,1.446.482,3.694-1.124,4.337-2.409,0,.161.161.482.161.643.161,1.285-2.73,3.694-4.5,3.212C646.151,555.094,645.027,553.97,645.027,553.006Z" transform="translate(-644.956 -548.755)"/>
        </g>
        <g id="Group_2340" data-name="Group 2340" transform="translate(48.318 20.272)">
          <path id="Path_205" data-name="Path 205" class="cls-1" d="M674.242,545.332a3.447,3.447,0,0,1,3.534.321,4.84,4.84,0,0,1,1.285,2.731c.161,1.124-2.57,3.373-4.176,2.891s-2.57-1.606-2.57-2.57C672.315,547.9,671.833,546.778,674.242,545.332Z" transform="translate(-672.243 -544.982)"/>
          <path id="Path_206" data-name="Path 206" class="cls-7" d="M672.327,547.846a4.37,4.37,0,0,1,0-1.446v.161c0,.964.964,2.088,2.57,2.57,1.285.482,3.373-1.124,4.016-2.249a1.214,1.214,0,0,0,.161.643c.161,1.124-2.57,3.373-4.176,2.891S672.327,548.809,672.327,547.846Z" transform="translate(-672.256 -544.122)"/>
        </g>
        <g id="Group_2341" data-name="Group 2341" transform="translate(24.779 0.897)">
          <path id="Path_207" data-name="Path 207" class="cls-1" d="M659.206,533.21a2.715,2.715,0,0,1,2.731.161,2.862,2.862,0,0,1,.964,2.088c.161.964-1.927,2.731-3.212,2.249-1.285-.321-2.088-1.285-2.088-1.927C657.761,535.137,657.279,534.334,659.206,533.21Z" transform="translate(-657.6 -532.919)"/>
          <path id="Path_208" data-name="Path 208" class="cls-7" d="M657.6,535.224v-.964c0,.8.8,1.606,2.088,1.927,1.124.321,2.57-.8,3.052-1.767v.482c.161.964-1.927,2.731-3.212,2.249A2.564,2.564,0,0,1,657.6,535.224Z" transform="translate(-657.6 -532.203)"/>
        </g>
        <g id="Group_2342" data-name="Group 2342" transform="translate(8.074 37.264)">
          <path id="Path_209" data-name="Path 209" class="cls-1" d="M648.646,555.785c.643-.321,1.927-.321,2.249.161a3.021,3.021,0,0,1,.8,1.767c0,.8-1.606,2.249-2.731,1.927a2.179,2.179,0,0,1-1.767-1.767C647.361,557.391,647.039,556.748,648.646,555.785Z" transform="translate(-647.2 -555.561)"/>
          <path id="Path_210" data-name="Path 210" class="cls-7" d="M647.3,557.464v-.8c0,.642.643,1.285,1.767,1.767a2.481,2.481,0,0,0,2.57-1.446v.321c0,.8-1.606,2.249-2.731,1.927C647.943,558.749,647.3,558.106,647.3,557.464Z" transform="translate(-647.139 -554.991)"/>
        </g>
        <g id="Group_2343" data-name="Group 2343" transform="translate(45.981 28.269)">
          <path id="Path_211" data-name="Path 211" class="cls-1" d="M672.246,550.184c.642-.321,1.927-.321,2.249.161a3.02,3.02,0,0,1,.8,1.767c0,.8-1.606,2.249-2.731,1.927a2.179,2.179,0,0,1-1.767-1.767C670.961,551.791,670.639,551.148,672.246,550.184Z" transform="translate(-670.8 -549.961)"/>
          <path id="Path_212" data-name="Path 212" class="cls-7" d="M670.9,551.864v-.8c0,.643.643,1.285,1.767,1.767a2.481,2.481,0,0,0,2.57-1.446v.321c0,.8-1.606,2.249-2.73,1.927C671.542,553.149,670.9,552.506,670.9,551.864Z" transform="translate(-670.739 -549.391)"/>
        </g>
        <g id="Group_2344" data-name="Group 2344" transform="translate(20.281 36.621)">
          <path id="Path_213" data-name="Path 213" class="cls-1" d="M656.246,555.385c.643-.321,1.927-.321,2.249.161a3.021,3.021,0,0,1,.8,1.767c0,.8-1.606,2.249-2.731,1.927a2.179,2.179,0,0,1-1.767-1.767C655.121,556.991,654.8,556.348,656.246,555.385Z" transform="translate(-654.8 -555.161)"/>
          <path id="Path_214" data-name="Path 214" class="cls-7" d="M654.9,557.064v-.8c0,.643.643,1.285,1.767,1.767a2.481,2.481,0,0,0,2.57-1.446v.321c0,.8-1.606,2.249-2.731,1.927A2.191,2.191,0,0,1,654.9,557.064Z" transform="translate(-654.739 -554.591)"/>
        </g>
        <g id="Group_2345" data-name="Group 2345" transform="translate(17.39 41.44)">
          <path id="Path_215" data-name="Path 215" class="cls-1" d="M654.446,558.385c.643-.321,1.927-.321,2.249.161a3.021,3.021,0,0,1,.8,1.767c0,.8-1.606,2.249-2.731,1.927A2.179,2.179,0,0,1,653,560.473C653.161,559.991,652.839,559.348,654.446,558.385Z" transform="translate(-653 -558.161)"/>
          <path id="Path_216" data-name="Path 216" class="cls-7" d="M653.1,560.064v-.8c0,.643.643,1.285,1.767,1.767a2.481,2.481,0,0,0,2.57-1.446v.321c0,.8-1.606,2.249-2.731,1.927A2.191,2.191,0,0,1,653.1,560.064Z" transform="translate(-652.94 -557.591)"/>
        </g>
        <g id="Group_2346" data-name="Group 2346" transform="translate(15.945)">
          <path id="Path_217" data-name="Path 217" class="cls-1" d="M653.546,532.584c.642-.321,1.927-.321,2.249.161a3.02,3.02,0,0,1,.8,1.767c0,.8-1.606,2.249-2.731,1.927a2.179,2.179,0,0,1-1.767-1.767C652.261,534.191,651.939,533.548,653.546,532.584Z" transform="translate(-652.1 -532.361)"/>
          <path id="Path_218" data-name="Path 218" class="cls-7" d="M652.2,534.264v-.8c0,.643.643,1.285,1.767,1.767a2.481,2.481,0,0,0,2.57-1.446v.321c0,.8-1.606,2.249-2.73,1.927A2.191,2.191,0,0,1,652.2,534.264Z" transform="translate(-652.039 -531.791)"/>
        </g>
        <g id="Group_2347" data-name="Group 2347" transform="translate(14.82 34.306)">
          <path id="Path_219" data-name="Path 219" class="cls-1" d="M653.006,554.01a2.715,2.715,0,0,1,2.731.161,2.862,2.862,0,0,1,.964,2.088c.161.964-1.927,2.731-3.212,2.249-1.285-.321-2.088-1.285-2.088-1.927C651.561,555.937,651.079,555.134,653.006,554.01Z" transform="translate(-651.4 -553.719)"/>
          <path id="Path_220" data-name="Path 220" class="cls-7" d="M651.4,556.024v-.964c0,.8.8,1.606,2.088,1.927,1.124.321,2.57-.8,3.052-1.767v.482c.161.964-1.927,2.731-3.212,2.249A2.564,2.564,0,0,1,651.4,556.024Z" transform="translate(-651.4 -553.003)"/>
        </g>
        <g id="Group_2348" data-name="Group 2348" transform="translate(19.298 4.27)">
          <path id="Path_221" data-name="Path 221" class="cls-1" d="M655.814,535.31a2.715,2.715,0,0,1,2.731.161,2.862,2.862,0,0,1,.964,2.088c.161.964-1.927,2.731-3.212,2.249-1.285-.321-2.088-1.285-2.088-1.927S653.886,536.434,655.814,535.31Z" transform="translate(-654.187 -535.019)"/>
          <path id="Path_222" data-name="Path 222" class="cls-7" d="M654.2,537.224v-.964c0,.8.8,1.606,2.088,1.927,1.124.321,2.57-.8,3.052-1.767v.482c.161.964-1.927,2.731-3.212,2.249C655,538.831,654.2,538.027,654.2,537.224Z" transform="translate(-654.18 -534.363)"/>
        </g>
        <g id="Group_2349" data-name="Group 2349" transform="translate(2.928 8.822)">
          <path id="Path_223" data-name="Path 223" class="cls-1" d="M649.3,538.25c-1.124-.643-3.212-.482-3.855.321A5.448,5.448,0,0,0,644,541.623c-.161,1.285,2.731,3.694,4.5,3.212s2.891-1.767,2.891-2.731C651.391,540.98,652.033,539.856,649.3,538.25Z" transform="translate(-643.996 -537.853)"/>
          <path id="Path_224" data-name="Path 224" class="cls-7" d="M651.391,541.006a5.354,5.354,0,0,0,0-1.606v.161c0,.964-1.124,2.249-2.891,2.731-1.446.482-3.694-1.124-4.337-2.409,0,.161-.161.482-.161.643-.161,1.285,2.731,3.694,4.5,3.212C650.427,543.255,651.552,541.97,651.391,541.006Z" transform="translate(-643.996 -536.915)"/>
        </g>
        <g id="Group_2350" data-name="Group 2350" transform="translate(38.264 32.594)">
          <path id="Path_225" data-name="Path 225" class="cls-1" d="M671.3,553.05c-1.124-.643-3.212-.482-3.855.321A6.029,6.029,0,0,0,666,556.423c-.161,1.285,2.731,3.694,4.5,3.212s2.891-1.767,2.891-2.731C673.391,555.78,673.873,554.656,671.3,553.05Z" transform="translate(-665.996 -552.653)"/>
          <path id="Path_226" data-name="Path 226" class="cls-7" d="M673.391,555.806a5.354,5.354,0,0,0,0-1.606v.161c0,.964-1.124,2.249-2.891,2.731-1.446.482-3.694-1.124-4.337-2.409,0,.161-.161.482-.161.643-.161,1.285,2.731,3.694,4.5,3.212A3.226,3.226,0,0,0,673.391,555.806Z" transform="translate(-665.996 -551.716)"/>
        </g>
        <g id="Group_2351" data-name="Group 2351" transform="translate(10.475 4.27)">
          <path id="Path_227" data-name="Path 227" class="cls-1" d="M652.237,535.31a2.386,2.386,0,0,0-2.57.161,2.862,2.862,0,0,0-.964,2.088c-.161.964,1.927,2.57,3.052,2.249a2.331,2.331,0,0,0,1.927-1.927C653.682,537.237,654,536.434,652.237,535.31Z" transform="translate(-648.694 -535.019)"/>
          <path id="Path_228" data-name="Path 228" class="cls-7" d="M653.682,537.224v-.964a2.564,2.564,0,0,1-1.927,1.927c-.964.321-2.57-.8-3.052-1.767v.482c-.161.964,1.927,2.57,3.052,2.249C653.04,538.831,653.682,538.027,653.682,537.224Z" transform="translate(-648.694 -534.363)"/>
        </g>
        <g id="Group_2352" data-name="Group 2352" transform="translate(46.935 14.067)">
          <path id="Path_229" data-name="Path 229" class="cls-1" d="M674.937,541.41a2.386,2.386,0,0,0-2.57.161,2.862,2.862,0,0,0-.964,2.088c-.161.964,1.927,2.57,3.052,2.249a2.331,2.331,0,0,0,1.927-1.927C676.383,543.337,676.7,542.534,674.937,541.41Z" transform="translate(-671.394 -541.119)"/>
          <path id="Path_230" data-name="Path 230" class="cls-7" d="M676.383,543.324v-.964a2.564,2.564,0,0,1-1.927,1.927c-.964.321-2.57-.8-3.052-1.767V543c-.161.964,1.927,2.57,3.052,2.249C675.74,544.931,676.383,544.127,676.383,543.324Z" transform="translate(-671.395 -540.464)"/>
        </g>
        <g id="Group_2353" data-name="Group 2353" transform="translate(38.583 41.855)">
          <path id="Path_231" data-name="Path 231" class="cls-1" d="M669.737,558.71a2.386,2.386,0,0,0-2.57.161,2.862,2.862,0,0,0-.964,2.088c-.161.964,1.927,2.57,3.052,2.249a2.331,2.331,0,0,0,1.927-1.927C671.182,560.637,671.5,559.834,669.737,558.71Z" transform="translate(-666.194 -558.419)"/>
          <path id="Path_232" data-name="Path 232" class="cls-7" d="M671.182,560.624v-.964a2.564,2.564,0,0,1-1.927,1.927c-.964.321-2.57-.8-3.052-1.767v.482c-.161.964,1.927,2.57,3.052,2.249S671.182,561.427,671.182,560.624Z" transform="translate(-666.195 -557.763)"/>
        </g>
      </g>
    </g>
  </g>
</svg>
