<svg xmlns="http://www.w3.org/2000/svg" viewBox="1216.592 2311.368 144.115 138.897">
  <defs>
    <style>
      .cls-1 {
        fill: #562d15;
      }

      .cls-2 {
        fill: #d2824c;
      }

      .cls-3 {
        fill: #fce77b;
      }

      .cls-4 {
        fill: #bb723f;
      }

      .cls-5 {
        fill: #f19d66;
      }

      .cls-6 {
        fill: #f8ad7c;
      }

      .cls-7 {
        fill: #fff;
        font-size: 6px;
        font-family: Aller-Regular, Aller;
      }
    </style>
  </defs>
  <g id="brown_sugar_1_" transform="translate(1216.592 2311.368)">
    <path id="Path_152" data-name="Path 152" class="cls-1" d="M636.96,229.224c-.482-8.673-6.425-15.9-11.243-22.647-3.212-4.5-5.782-6.585-9.637-10.44-4.819-4.979-9.155-10.6-15.259-13.653-7.71-4.016-15.259-6.425-23.611-8.673-2.57-.642-9.637,0-12.207-.161-4.176-.161-13.653,3.212-17.668,4.5-10.44,3.534-13.813,5.3-23.129,11.565-2.088,1.285-7.228,5.3-8.673,7.388-1.285,1.927-3.373,4.5-4.5,6.585-3.212,6.1-4.979,9.637-8.673,15.419-2.57,4.176-3.855,8.995-5.14,13.813a45.685,45.685,0,0,0-1.446,6.746c-.964,8.031,1.767,14.938,3.694,22.647a68.779,68.779,0,0,0,5.943,15.58,49.08,49.08,0,0,0,7.067,10.28,43.621,43.621,0,0,1,4.979,6.1c6.907,10.922,13.813,10.44,27.466,14.135,18.471,5.14,31,4.819,41.279,1.927,5.14-1.446,8.192-2.891,10.28-3.373,2.57-.642,6.585-1.124,9.155-2.249,6.907-3.052,8.352-3.855,14.135-8.834,1.767-1.446,4.176-6.746,5.461-8.834,2.088-3.212,3.373-4.658,5.14-8.192.964-1.927,3.052-4.5,3.855-6.585,2.409-6.1,5.3-12.689,5.461-19.274C639.691,247.053,637.281,235.006,636.96,229.224Z" transform="translate(-495.575 -173.518)"/>
    <g id="brown_sugar_2_" transform="translate(40.837 21.815)">
      <g id="Group_2273" data-name="Group 2273" transform="translate(0 9.798)">
        <path id="Path_153" data-name="Path 153" class="cls-2" d="M521,193.2v14.777c0,5.3,13.974,9.637,31.321,9.637s31.321-4.337,31.321-9.637h0V193.2Z" transform="translate(-521 -193.2)"/>
      </g>
      <g id="Group_2274" data-name="Group 2274" transform="translate(0 24.575)">
        <path id="Path_154" data-name="Path 154" class="cls-3" d="M583.642,261.347V202.4c0,5.3-13.974,9.637-31.321,9.637S521,207.7,521,202.4v58.947c0,5.3,13.974,11.886,31.321,11.886,17.186,0,31.321-6.585,31.321-11.886Z" transform="translate(-521 -202.4)"/>
      </g>
      <g id="Group_2278" data-name="Group 2278" transform="translate(0 9.798)">
        <g id="Group_2275" data-name="Group 2275" transform="translate(51.077)">
          <path id="Path_155" data-name="Path 155" class="cls-4" d="M552.8,194.324v21.2c7.067-1.767,11.565-4.5,11.565-7.549h0V193.2S552.8,201.713,552.8,194.324Z" transform="translate(-552.8 -193.2)"/>
        </g>
        <g id="Group_2276" data-name="Group 2276" transform="translate(51.077 14.777)">
          <path id="Path_156" data-name="Path 156" class="cls-5" d="M552.8,209.949v60.232c7.067-2.409,11.565-5.782,11.565-8.834h0V202.4C564.2,205.452,559.867,208.182,552.8,209.949Z" transform="translate(-552.8 -202.4)"/>
        </g>
        <g id="Group_2277" data-name="Group 2277" transform="translate(0 14.777)">
          <path id="Path_157" data-name="Path 157" class="cls-6" d="M552.321,212.037C534.974,212.037,521,207.7,521,202.4v58.947c0,5.3,13.974,11.886,31.321,11.886a63.808,63.808,0,0,0,19.756-3.052V209.949A88.74,88.74,0,0,1,552.321,212.037Z" transform="translate(-521 -202.4)"/>
        </g>
      </g>
      <g id="Group_2279" data-name="Group 2279">
        <ellipse id="Ellipse_1030" data-name="Ellipse 1030" class="cls-5" cx="31.321" cy="9.637" rx="31.321" ry="9.637"/>
      </g>
      <g id="Group_2280" data-name="Group 2280" transform="translate(13.171 48.668)">
        <ellipse id="Ellipse_1031" data-name="Ellipse 1031" class="cls-4" cx="18.15" cy="12.046" rx="18.15" ry="12.046"/>
      </g>
      <g id="Group_2281" data-name="Group 2281" transform="translate(18.861 53.542)">
        <text id="BROWN" class="cls-7" transform="translate(0 6)"><tspan x="0" y="0">BROWN</tspan></text>
        <text id="SUGAR" class="cls-7" transform="translate(1.285 12.907)"><tspan x="0" y="0">SUGAR</tspan></text>
      </g>
    </g>
  </g>
</svg>
