<svg xmlns="http://www.w3.org/2000/svg" viewBox="1025.776 2311.368 144.115 138.897">
  <defs>
    <style>
      .cls-1 {
        fill: #562d15;
      }

      .cls-2 {
        fill: #f3d869;
      }

      .cls-3 {
        fill: #fce77b;
      }

      .cls-4 {
        fill: #ebbe44;
      }
    </style>
  </defs>
  <g id="butter_1_" transform="translate(1025.776 2311.368)">
    <path id="Path_148" data-name="Path 148" class="cls-1" d="M518.16,229.224c-.482-8.673-6.425-15.9-11.243-22.647-3.212-4.5-5.782-6.585-9.637-10.44-4.819-4.979-9.155-10.6-15.259-13.653-7.71-4.016-15.259-6.425-23.611-8.673-2.57-.642-9.637,0-12.207-.161-4.176-.161-13.653,3.212-17.668,4.5-10.44,3.534-13.813,5.3-23.129,11.565-2.088,1.285-7.228,5.3-8.673,7.388-1.285,1.927-3.373,4.5-4.5,6.585-3.212,6.1-4.979,9.637-8.673,15.419-2.57,4.176-3.855,8.995-5.14,13.813a45.677,45.677,0,0,0-1.446,6.746c-.964,8.031,1.767,14.938,3.694,22.647a68.779,68.779,0,0,0,5.943,15.58,49.079,49.079,0,0,0,7.067,10.28,43.625,43.625,0,0,1,4.979,6.1c6.907,10.922,13.813,10.44,27.466,14.135,18.471,5.14,31,4.819,41.279,1.927,5.14-1.446,8.192-2.891,10.28-3.373,2.57-.642,6.585-1.124,9.155-2.249,6.907-3.052,8.352-3.855,14.135-8.834,1.767-1.446,4.176-6.746,5.461-8.834,2.088-3.212,3.373-4.658,5.14-8.192.964-1.927,3.052-4.5,3.855-6.585,2.409-6.1,5.3-12.689,5.461-19.274C520.891,247.053,518.481,235.006,518.16,229.224Z" transform="translate(-376.775 -173.518)"/>
    <g id="butter_2_" transform="translate(27.184 37.395)">
      <path id="Path_149" data-name="Path 149" class="cls-2" d="M449.435,196.8,393.7,215.914v39.673l34.051,5.3,55.9-28.751V199.531Z" transform="translate(-393.7 -196.8)"/>
      <path id="Path_150" data-name="Path 150" class="cls-3" d="M427.751,253.673l-34.051-5.3V208.7l34.051,5.622Z" transform="translate(-393.7 -189.586)"/>
      <path id="Path_151" data-name="Path 151" class="cls-4" d="M427.751,221.535l55.9-22L449.435,196.8,393.7,215.914Z" transform="translate(-393.7 -196.8)"/>
    </g>
  </g>
</svg>
