<svg xmlns="http://www.w3.org/2000/svg" viewBox="1025.776 2569.001 144.115 138.897">
  <defs>
    <style>
      .cls-1 {
        fill: #562d15;
      }

      .cls-2 {
        fill: #fbf3e2;
      }

      .cls-3 {
        fill: #f6e0b9;
      }

      .cls-4 {
        fill: #fff;
      }
    </style>
  </defs>
  <g id="eggs_2_" transform="translate(1025.776 2569.001)">
    <path id="Path_164" data-name="Path 164" class="cls-1" d="M518.16,389.624c-.482-8.673-6.425-15.9-11.243-22.647-3.212-4.5-5.782-6.585-9.637-10.44-4.819-4.979-9.155-10.6-15.259-13.653-7.71-4.016-15.259-6.425-23.611-8.673-2.57-.642-9.637,0-12.207-.161-4.176-.161-13.653,3.212-17.668,4.5-10.44,3.534-13.813,5.3-23.129,11.565-2.088,1.285-7.228,5.3-8.673,7.389-1.285,1.927-3.373,4.5-4.5,6.585-3.212,6.1-4.979,9.637-8.673,15.419-2.57,4.176-3.855,8.995-5.14,13.813a45.678,45.678,0,0,0-1.446,6.746c-.964,8.031,1.767,14.938,3.694,22.647a68.78,68.78,0,0,0,5.943,15.58,49.081,49.081,0,0,0,7.067,10.28,43.623,43.623,0,0,1,4.979,6.1c6.907,10.922,13.813,10.44,27.466,14.134,18.471,5.14,31,4.819,41.279,1.927,5.14-1.446,8.192-2.891,10.28-3.373,2.57-.642,6.585-1.124,9.155-2.249,6.907-3.052,8.352-3.855,14.135-8.834,1.767-1.446,4.176-6.746,5.461-8.834,2.088-3.212,3.373-4.658,5.14-8.192.964-1.927,3.052-4.5,3.855-6.585,2.409-6.1,5.3-12.689,5.461-19.274C520.891,407.613,518.481,395.567,518.16,389.624Z" transform="translate(-376.775 -333.918)"/>
    <g id="eggs_3_" transform="translate(13.47 32.898)">
      <g id="Group_2297" data-name="Group 2297" transform="translate(57.081)">
        <g id="egg_3_">
          <ellipse id="Ellipse_1034" data-name="Ellipse 1034" class="cls-2" cx="24.896" cy="33.409" rx="24.896" ry="33.409" transform="translate(0.161)"/>
          <path id="Path_165" data-name="Path 165" class="cls-3" d="M425.519,382.52c0-10.6,3.694-19.917,9.316-26.02-8.352,5.461-14.134,16.865-14.134,30.036,0,18.471,11.243,33.409,24.9,33.409,5.943,0,11.243-2.731,15.58-7.388a19.931,19.931,0,0,1-10.922,3.373C436.762,415.769,425.519,400.831,425.519,382.52Z" transform="translate(-420.7 -353.127)"/>
          <ellipse id="Ellipse_1035" data-name="Ellipse 1035" class="cls-4" cx="10.119" cy="13.492" rx="10.119" ry="13.492" transform="translate(16.981 9.282) rotate(-12.669)"/>
        </g>
      </g>
      <g id="Group_2298" data-name="Group 2298" transform="translate(0 0.486)">
        <g id="egg_2_">
          <ellipse id="Ellipse_1036" data-name="Ellipse 1036" class="cls-2" cx="24.896" cy="33.409" rx="24.896" ry="33.409" transform="matrix(0.906, -0.424, 0.424, 0.906, 0, 21.107)"/>
          <path id="Path_166" data-name="Path 166" class="cls-3" d="M398.116,393.466c-4.5-9.477-5.14-19.6-2.57-27.466-5.3,8.352-5.622,21.2,0,33.088,7.87,16.7,24.254,25.539,36.782,19.6a21.666,21.666,0,0,0,11.083-13.171,19.345,19.345,0,0,1-8.513,7.549C422.37,419,405.826,410.17,398.116,393.466Z" transform="translate(-381.35 -347.854)"/>
          <ellipse id="Ellipse_1037" data-name="Ellipse 1037" class="cls-4" cx="10.119" cy="13.492" rx="10.119" ry="13.492" transform="matrix(0.791, -0.612, 0.612, 0.791, 19.106, 22.432)"/>
        </g>
      </g>
    </g>
  </g>
</svg>
