<svg xmlns="http://www.w3.org/2000/svg" viewBox="1025.776 2826.796 144.115 138.897">
  <defs>
    <style>
      .cls-1 {
        fill: #562d15;
      }

      .cls-2 {
        fill: #dcc19a;
      }

      .cls-3 {
        fill: #fce77b;
      }

      .cls-4 {
        fill: #cdae85;
      }

      .cls-5 {
        fill: #f1e0b1;
      }

      .cls-6 {
        fill: #fff3d0;
      }

      .cls-7 {
        fill: #fff;
        font-size: 6px;
        font-family: Aller-Regular, Aller;
      }
    </style>
  </defs>
  <g id="flour_1_" transform="translate(1025.776 2826.796)">
    <path id="Path_177" data-name="Path 177" class="cls-1" d="M518.16,550.124c-.482-8.673-6.425-15.9-11.243-22.647-3.212-4.5-5.782-6.585-9.637-10.44-4.819-4.979-9.155-10.6-15.259-13.653-7.71-4.016-15.259-6.425-23.611-8.673-2.57-.642-9.637,0-12.207-.161-4.176-.161-13.653,3.212-17.668,4.5-10.44,3.534-13.813,5.3-23.129,11.565-2.088,1.285-7.228,5.3-8.673,7.388-1.285,1.927-3.373,4.5-4.5,6.585-3.212,6.1-4.979,9.637-8.673,15.419-2.57,4.176-3.855,8.995-5.14,13.813a45.678,45.678,0,0,0-1.446,6.746c-.964,8.031,1.767,14.938,3.694,22.647a68.78,68.78,0,0,0,5.943,15.58,49.08,49.08,0,0,0,7.067,10.28,43.63,43.63,0,0,1,4.979,6.1c6.907,10.922,13.813,10.44,27.466,14.135,18.471,5.14,31,4.819,41.279,1.927,5.14-1.446,8.192-2.891,10.28-3.373,2.57-.643,6.585-1.124,9.155-2.249,6.907-3.052,8.352-3.855,14.135-8.834,1.767-1.446,4.176-6.746,5.461-8.834,2.088-3.212,3.373-4.658,5.14-8.192.964-1.927,3.052-4.5,3.855-6.585,2.409-6.1,5.3-12.689,5.461-19.274C520.891,567.953,518.481,555.906,518.16,550.124Z" transform="translate(-376.775 -494.418)"/>
    <g id="flour_2_" transform="translate(40.837 21.654)">
      <g id="Group_2310" data-name="Group 2310" transform="translate(0 9.958)">
        <path id="Path_178" data-name="Path 178" class="cls-2" d="M402.2,514.1v14.777c0,5.3,13.974,9.637,31.321,9.637s31.321-4.337,31.321-9.637h0V514.1Z" transform="translate(-402.2 -514.1)"/>
      </g>
      <g id="Group_2311" data-name="Group 2311" transform="translate(0 24.735)">
        <path id="Path_179" data-name="Path 179" class="cls-3" d="M464.842,582.247V523.3c0,5.3-13.974,9.637-31.321,9.637S402.2,528.6,402.2,523.3v58.947c0,5.3,13.974,11.886,31.321,11.886,17.186-.161,31.321-6.586,31.321-11.886Z" transform="translate(-402.2 -523.3)"/>
      </g>
      <g id="Group_2315" data-name="Group 2315" transform="translate(0 9.958)">
        <g id="Group_2312" data-name="Group 2312" transform="translate(51.077)">
          <path id="Path_180" data-name="Path 180" class="cls-4" d="M434,515.224v21.2c7.067-1.767,11.565-4.5,11.565-7.549h0V514.1S434,522.613,434,515.224Z" transform="translate(-434 -514.1)"/>
        </g>
        <g id="Group_2313" data-name="Group 2313" transform="translate(51.077 14.616)">
          <path id="Path_181" data-name="Path 181" class="cls-5" d="M434,530.749v60.232c7.067-2.409,11.565-5.782,11.565-8.834h0V523.2C445.4,526.412,441.067,528.982,434,530.749Z" transform="translate(-434 -523.2)"/>
        </g>
        <g id="Group_2314" data-name="Group 2314" transform="translate(0 14.777)">
          <path id="Path_182" data-name="Path 182" class="cls-6" d="M433.521,532.937c-17.347,0-31.321-4.337-31.321-9.637v58.947c0,5.3,13.974,11.886,31.321,11.886a63.806,63.806,0,0,0,19.756-3.052V530.849A88.741,88.741,0,0,1,433.521,532.937Z" transform="translate(-402.2 -523.3)"/>
        </g>
      </g>
      <g id="Group_2316" data-name="Group 2316">
        <ellipse id="Ellipse_1058" data-name="Ellipse 1058" class="cls-5" cx="31.321" cy="9.637" rx="31.321" ry="9.637"/>
      </g>
      <g id="Group_2317" data-name="Group 2317" transform="translate(13.171 48.668)">
        <ellipse id="Ellipse_1059" data-name="Ellipse 1059" class="cls-4" cx="18.15" cy="12.046" rx="18.15" ry="12.046"/>
      </g>
      <text id="FLOUR" class="cls-7" transform="translate(20.519 63.623)"><tspan x="0" y="0">FLOUR</tspan></text>
    </g>
  </g>
</svg>
