<svg xmlns="http://www.w3.org/2000/svg" viewBox="95.749 1072.88 1727.898 544.703">
  <defs>
    <style>
      .cls-1 {
        fill: #ce7687;
      }

      .cls-2 {
        fill: #9d4a56;
      }

      .cls-3 {
        fill: #dba02a;
      }

      .cls-4 {
        fill: #931f1f;
      }

      .cls-5 {
        fill: #ffedc0;
      }

      .cls-6 {
        fill: #c44545;
      }

      .cls-7 {
        fill: #e55b57;
      }

      .cls-8, .cls-9 {
        fill: #ffc97b;
      }

      .cls-9 {
        opacity: 0.42;
      }

      .cls-10 {
        fill: none;
        stroke: #931f1f;
        stroke-miterlimit: 10;
      }
    </style>
  </defs>
  <g id="Group_2145" data-name="Group 2145" transform="translate(95.749 1079)">
    <g id="XMLID_1119_" transform="translate(1488.587)">
      <g id="XMLID_1121_" transform="translate(0 220.011)">
        <g id="XMLID_1124_">
          <path id="XMLID_1377_" class="cls-1" d="M503.955,47.1C437.939,47.1,384.3,51.771,384.3,57.844v5.605c0-6.072,53.639-10.744,119.655-10.744s119.656,4.671,119.656,10.744V57.844C623.611,51.771,569.972,47.1,503.955,47.1Z" transform="translate(-384.3 -47.1)"/>
          <ellipse id="XMLID_1376_" class="cls-2" cx="119.655" cy="10.744" rx="119.655" ry="10.744" transform="translate(0 5.605)"/>
          <ellipse id="XMLID_1375_" class="cls-3" cx="117.363" cy="6.54" rx="117.363" ry="6.54" transform="translate(2.292 305.493)"/>
          <g id="XMLID_1372_" transform="translate(1.834 9.342)">
            <path id="XMLID_1374_" class="cls-4" d="M618.251,90.673c-2.292-1.868-3.667-8.875-3.667-17.283,0-9.809,2.292-17.75,5.043-17.75,0-3.737-52.722-6.54-117.363-6.54S384.9,51.9,384.9,55.64c2.751,0,5.043,7.941,5.043,17.75,0,8.408-1.834,15.415-3.667,17.283,10.086-3.27,58.223-5.605,116.446-5.605C560.028,85.068,608.165,87.4,618.251,90.673Z" transform="translate(-383.983 -49.1)"/>
            <path id="XMLID_1373_" class="cls-5" d="M619.426,63.807h0v-.934c-.458,0-.917,0-.917-.467-10.086-3.27-58.223-5.605-116.446-5.605S395.7,59.136,385.617,62.405a1.408,1.408,0,0,1-.917.467v.934h0c3.668-3.27,54.556-6.072,117.363-6.072S616.217,60.537,619.426,63.807Z" transform="translate(-384.7 -20.832)"/>
          </g>
          <g id="XMLID_1369_" transform="translate(1.834 46.244)">
            <path id="XMLID_1371_" class="cls-6" d="M618.251,98.573c-2.292-1.868-3.667-8.875-3.667-17.283,0-9.809,2.292-17.75,5.043-17.75C619.626,59.8,566.9,57,502.263,57S384.9,59.8,384.9,63.54c2.751,0,5.043,7.941,5.043,17.75,0,8.408-1.834,15.415-3.667,17.283,10.086-3.27,58.223-5.605,116.446-5.605C560.028,92.968,608.165,95.771,618.251,98.573Z" transform="translate(-383.983 -57)"/>
            <path id="XMLID_1370_" class="cls-5" d="M619.426,71.807h0v-.934c-.458,0-.917,0-.917-.467-10.086-3.27-58.223-5.605-116.446-5.605S395.7,67.136,385.617,70.405a1.408,1.408,0,0,1-.917.467v.934h0c3.668-3.27,54.556-6.072,117.363-6.072S616.217,68.07,619.426,71.807Z" transform="translate(-384.7 -28.365)"/>
          </g>
          <g id="XMLID_1366_" transform="translate(1.834 83.146)">
            <path id="XMLID_1368_" class="cls-4" d="M618.251,106.473c-2.292-1.868-3.667-8.875-3.667-17.283,0-9.809,2.292-17.75,5.043-17.75,0-3.737-52.722-6.54-117.363-6.54S384.9,67.7,384.9,71.44c2.751,0,5.043,7.941,5.043,17.75,0,8.408-1.834,15.415-3.667,17.283,10.086-3.27,58.223-5.605,116.446-5.605C560.028,101.335,608.165,103.67,618.251,106.473Z" transform="translate(-383.983 -64.9)"/>
            <path id="XMLID_1367_" class="cls-5" d="M619.426,79.707h0v-.934c-.458,0-.917,0-.917-.467-10.086-3.27-58.223-5.605-116.446-5.605S395.7,75.036,385.617,78.305a1.408,1.408,0,0,1-.917.467v.934h0c3.668-3.27,54.556-6.073,117.363-6.073S616.217,75.97,619.426,79.707Z" transform="translate(-384.7 -36.265)"/>
          </g>
          <g id="XMLID_1363_" transform="translate(1.834 120.515)">
            <path id="XMLID_1365_" class="cls-6" d="M618.251,114.473c-2.292-1.868-3.667-8.875-3.667-17.283,0-9.809,2.292-17.75,5.043-17.75,0-3.737-52.722-6.54-117.363-6.54S384.9,75.7,384.9,79.44c2.751,0,5.043,7.941,5.043,17.75,0,8.408-1.834,15.415-3.667,17.283,10.086-3.27,58.223-5.605,116.446-5.605C560.028,108.868,608.165,111.2,618.251,114.473Z" transform="translate(-383.983 -72.9)"/>
            <path id="XMLID_1364_" class="cls-5" d="M619.426,87.607h0v-.934c-.458,0-.917,0-.917-.467-10.086-3.27-58.223-5.605-116.446-5.605S395.7,82.936,385.617,86.205a1.408,1.408,0,0,1-.917.467v.934h0c3.668-3.27,54.556-6.073,117.363-6.073S616.217,84.337,619.426,87.607Z" transform="translate(-384.7 -44.632)"/>
          </g>
          <g id="XMLID_1351_" transform="translate(1.834 157.417)">
            <path id="XMLID_1362_" class="cls-4" d="M618.251,122.373c-2.292-1.868-3.667-8.875-3.667-17.283,0-9.809,2.292-17.75,5.043-17.75,0-3.737-52.722-6.54-117.363-6.54S384.9,83.6,384.9,87.34c2.751,0,5.043,7.941,5.043,17.75,0,8.408-1.834,15.415-3.667,17.283,10.086-3.27,58.223-5.605,116.446-5.605C560.028,116.768,608.165,119.1,618.251,122.373Z" transform="translate(-383.983 -80.8)"/>
            <path id="XMLID_1358_" class="cls-5" d="M619.426,95.507h0v-.934c-.458,0-.917,0-.917-.467-10.086-3.27-58.223-5.605-116.446-5.605S395.7,90.836,385.617,94.105a1.408,1.408,0,0,1-.917.467v.934h0c3.668-3.27,54.556-6.072,117.363-6.072S616.217,92.237,619.426,95.507Z" transform="translate(-384.7 -52.532)"/>
          </g>
          <g id="XMLID_1131_" transform="translate(1.834 194.32)">
            <path id="XMLID_1133_" class="cls-7" d="M618.251,130.273c-2.292-1.868-3.667-8.875-3.667-17.283,0-9.809,2.292-17.75,5.043-17.75,0-3.737-52.722-6.54-117.363-6.54S384.9,91.5,384.9,95.24c2.751,0,5.043,7.941,5.043,17.75,0,8.408-1.834,15.415-3.667,17.283,10.086-3.27,58.223-5.605,116.446-5.605C560.028,124.668,608.165,127.47,618.251,130.273Z" transform="translate(-383.983 -88.7)"/>
            <path id="XMLID_1132_" class="cls-5" d="M619.426,103.507h0v-.934c-.458,0-.917,0-.917-.467-10.086-3.27-58.223-5.605-116.446-5.605s-106.36,2.336-116.446,5.605a1.408,1.408,0,0,1-.917.467v.934h0c3.668-3.27,54.556-6.073,117.363-6.073S616.217,99.77,619.426,103.507Z" transform="translate(-384.7 -60.065)"/>
          </g>
          <g id="XMLID_1128_" transform="translate(1.834 231.689)">
            <path id="XMLID_1130_" class="cls-4" d="M618.251,138.273c-2.292-1.868-3.667-8.875-3.667-17.283,0-9.809,2.292-17.75,5.043-17.75,0-3.737-52.722-6.54-117.363-6.54S384.9,99.5,384.9,103.24c2.751,0,5.043,7.941,5.043,17.75,0,8.408-1.834,15.415-3.667,17.283,10.086-3.27,58.223-5.605,116.446-5.605C560.028,132.668,608.165,135,618.251,138.273Z" transform="translate(-383.983 -96.7)"/>
            <path id="XMLID_1129_" class="cls-5" d="M619.426,111.407h0v-.934c-.458,0-.917,0-.917-.467-10.086-3.27-58.223-5.605-116.446-5.605s-106.36,2.336-116.446,5.605a1.408,1.408,0,0,1-.917.467v.934h0c3.668-3.27,54.556-6.073,117.363-6.073S616.217,107.67,619.426,111.407Z" transform="translate(-384.7 -68.432)"/>
          </g>
          <g id="XMLID_1125_" transform="translate(1.834 268.591)">
            <path id="XMLID_1127_" class="cls-7" d="M618.251,146.173c-2.292-1.868-3.667-8.875-3.667-17.283,0-9.809,2.292-17.75,5.043-17.75,0-3.737-52.722-6.54-117.363-6.54S384.9,107.4,384.9,111.14c2.751,0,5.043,7.941,5.043,17.75,0,8.408-1.834,15.415-3.667,17.283,10.086-3.27,58.223-5.605,116.446-5.605C560.028,140.568,608.165,142.9,618.251,146.173Z" transform="translate(-383.983 -104.6)"/>
            <path id="XMLID_1126_" class="cls-4" d="M619.426,119.307h0v-.934c-.458,0-.917,0-.917-.467-10.086-3.27-58.223-5.605-116.446-5.605s-106.36,2.336-116.446,5.605a1.408,1.408,0,0,1-.917.467v.934h0c3.668-3.27,54.556-6.072,117.363-6.072S616.217,116.037,619.426,119.307Z" transform="translate(-384.7 -76.332)"/>
          </g>
        </g>
        <ellipse id="XMLID_1123_" class="cls-8" cx="36.218" cy="36.902" rx="36.218" ry="36.902" transform="translate(83.438 156.483)"/>
        <ellipse id="XMLID_1122_" class="cls-9" cx="79.312" cy="80.811" rx="79.312" ry="80.811" transform="translate(40.344 112.575)"/>
      </g>
      <line id="XMLID_1120_" class="cls-10" y1="225.616" transform="translate(119.656)"/>
    </g>
    <g id="XMLID_1086_">
      <g id="XMLID_1088_" transform="translate(0 151.345)">
        <g id="XMLID_1091_">
          <path id="XMLID_1118_" class="cls-1" d="M155.416,32.4c-53.18,0-95.816,3.737-95.816,8.875v4.2c0-4.671,43.094-8.875,95.816-8.875s95.816,3.737,95.816,8.875v-4.2C251.691,36.137,208.6,32.4,155.416,32.4Z" transform="translate(-59.6 -32.4)"/>
          <ellipse id="XMLID_1117_" class="cls-2" cx="95.816" cy="8.875" rx="95.816" ry="8.875" transform="translate(0 4.204)"/>
          <ellipse id="XMLID_1116_" class="cls-3" cx="93.982" cy="5.138" rx="93.982" ry="5.138" transform="translate(1.834 244.768)"/>
          <g id="XMLID_1113_" transform="translate(0.917 7.474)">
            <path id="XMLID_1115_" class="cls-4" d="M247.506,67.165c-1.834-1.4-3.209-7.007-3.209-14.013,0-7.941,1.834-14.013,4.126-14.013,0-2.8-42.177-5.138-93.982-5.138S60,36.336,60,39.138c2.292,0,4.126,6.54,4.126,14.013,0,7.007-1.375,12.612-3.209,14.013,7.794-2.336,46.762-4.2,93.524-4.2C200.744,62.961,239.712,64.83,247.506,67.165Z" transform="translate(-59.083 -34)"/>
            <path id="XMLID_1114_" class="cls-5" d="M248.681,45.805h0v-.934c-.458,0-.458,0-.917-.467-7.794-2.336-46.762-4.2-93.524-4.2s-85.272,1.868-93.524,4.2c-.458,0-.458.467-.917.467v.934h0c2.751-2.8,44.011-5.138,93.982-5.138C205.129,40.667,245.931,43,248.681,45.805Z" transform="translate(-59.8 -11.239)"/>
          </g>
          <g id="XMLID_1110_" transform="translate(0.917 37.369)">
            <path id="XMLID_1112_" class="cls-6" d="M247.506,73.565c-1.834-1.4-3.209-7.007-3.209-14.013,0-7.941,1.834-14.013,4.126-14.013,0-2.8-42.177-5.138-93.982-5.138S60,42.268,60,45.071c2.292,0,4.126,6.54,4.126,14.013,0,7.007-1.375,12.612-3.209,14.013,7.794-2.336,46.762-4.2,93.524-4.2C200.744,68.894,239.712,70.762,247.506,73.565Z" transform="translate(-59.083 -40.4)"/>
            <path id="XMLID_1111_" class="cls-5" d="M248.681,52.105h0v-.934c-.458,0-.458,0-.917-.467-7.794-2.336-46.762-4.2-93.524-4.2s-85.272,1.868-93.524,4.2c-.458,0-.458.467-.917.467v.934h0c2.751-2.8,44.011-5.138,93.982-5.138C205.129,47.434,245.931,49.3,248.681,52.105Z" transform="translate(-59.8 -18.006)"/>
          </g>
          <g id="XMLID_1107_" transform="translate(0.917 66.797)">
            <path id="XMLID_1109_" class="cls-4" d="M247.506,79.865c-1.834-1.4-3.209-7.007-3.209-14.013,0-7.941,1.834-14.013,4.126-14.013,0-2.8-42.177-5.138-93.982-5.138S60,49.036,60,51.838c2.292,0,4.126,6.54,4.126,14.013,0,7.007-1.375,12.612-3.209,14.013,7.794-2.336,46.762-4.2,93.524-4.2C200.744,75.661,239.712,77.53,247.506,79.865Z" transform="translate(-59.083 -46.7)"/>
            <path id="XMLID_1108_" class="cls-5" d="M248.681,58.505h0v-.934c-.458,0-.458,0-.917-.467-7.794-2.336-46.762-4.2-93.524-4.2s-85.272,1.868-93.524,4.2c-.458,0-.458.467-.917.467v.934h0c2.751-2.8,44.011-5.138,93.982-5.138C205.129,53.367,245.931,55.7,248.681,58.505Z" transform="translate(-59.8 -23.939)"/>
          </g>
          <g id="XMLID_1104_" transform="translate(0.917 96.693)">
            <path id="XMLID_1106_" class="cls-6" d="M247.506,86.265c-1.834-1.4-3.209-7.007-3.209-14.013,0-7.941,1.834-14.013,4.126-14.013,0-2.8-42.177-5.138-93.982-5.138S60,54.968,60,58.238c2.292,0,4.126,6.54,4.126,14.013,0,7.007-1.375,12.612-3.209,14.013,7.794-2.336,46.762-4.2,93.524-4.2C200.744,81.594,239.712,83.462,247.506,86.265Z" transform="translate(-59.083 -53.1)"/>
            <path id="XMLID_1105_" class="cls-5" d="M248.681,64.805h0v-.934c-.458,0-.458,0-.917-.467-7.794-2.336-46.762-4.2-93.524-4.2s-85.272,1.868-93.524,4.2c-.458,0-.458.467-.917.467v.934h0c2.751-2.8,44.011-5.138,93.982-5.138C205.129,60.134,245.931,62.47,248.681,64.805Z" transform="translate(-59.8 -30.706)"/>
          </g>
          <g id="XMLID_1101_" transform="translate(0.917 126.121)">
            <path id="XMLID_1103_" class="cls-4" d="M247.506,92.565c-1.834-1.4-3.209-7.007-3.209-14.013,0-7.941,1.834-14.013,4.126-14.013,0-2.8-42.177-5.138-93.982-5.138S60,61.736,60,64.538c2.292,0,4.126,6.54,4.126,14.013,0,7.007-1.375,12.612-3.209,14.013,7.794-2.336,46.762-4.2,93.524-4.2C200.744,88.361,239.712,90.229,247.506,92.565Z" transform="translate(-59.083 -59.4)"/>
            <path id="XMLID_1102_" class="cls-5" d="M248.681,71.205h0v-.934c-.458,0-.458,0-.917-.467-7.794-2.336-46.762-4.2-93.524-4.2s-85.272,1.868-93.524,4.2c-.458,0-.458.467-.917.467v.934h0c2.751-2.8,44.011-5.138,93.982-5.138C205.129,66.067,245.931,68.4,248.681,71.205Z" transform="translate(-59.8 -36.639)"/>
          </g>
          <g id="XMLID_1098_" transform="translate(0.917 156.016)">
            <path id="XMLID_1100_" class="cls-7" d="M247.506,98.965c-1.834-1.4-3.209-7.007-3.209-14.013,0-7.941,1.834-14.013,4.126-14.013,0-2.8-42.177-5.138-93.982-5.138S60,67.668,60,70.938c2.292,0,4.126,6.54,4.126,14.013,0,7.007-1.375,12.612-3.209,14.013,7.794-2.336,46.762-4.2,93.524-4.2C200.744,94.294,239.712,96.63,247.506,98.965Z" transform="translate(-59.083 -65.8)"/>
            <path id="XMLID_1099_" class="cls-5" d="M248.681,77.605h0v-.934c-.458,0-.458,0-.917-.467C239.971,73.868,201,72,154.241,72s-85.272,1.868-93.524,4.2c-.458,0-.458.467-.917.467v.934h0c2.751-2.8,44.011-5.138,93.982-5.138C205.129,72.467,245.931,74.8,248.681,77.605Z" transform="translate(-59.8 -43.039)"/>
          </g>
          <g id="XMLID_1095_" transform="translate(0.917 185.444)">
            <path id="XMLID_1097_" class="cls-4" d="M247.506,105.265c-1.834-1.4-3.209-7.007-3.209-14.013,0-7.941,1.834-14.013,4.126-14.013,0-2.8-42.177-5.138-93.982-5.138S60,74.436,60,77.238c2.292,0,4.126,6.54,4.126,14.013,0,7.007-1.375,12.612-3.209,14.013,7.794-2.336,46.762-4.2,93.524-4.2C200.744,101.061,239.712,102.93,247.506,105.265Z" transform="translate(-59.083 -72.1)"/>
            <path id="XMLID_1096_" class="cls-5" d="M248.681,83.905h0v-.934c-.458,0-.458,0-.917-.467-7.794-2.336-46.762-4.2-93.524-4.2s-85.272,1.868-93.524,4.2c-.458,0-.458.467-.917.467v.934h0c2.751-2.8,44.011-5.138,93.982-5.138C205.129,78.767,245.931,81.1,248.681,83.905Z" transform="translate(-59.8 -49.339)"/>
          </g>
          <g id="XMLID_1092_" transform="translate(0.917 215.34)">
            <path id="XMLID_1094_" class="cls-7" d="M247.506,111.665c-1.834-1.4-3.209-7.007-3.209-14.013,0-7.941,1.834-14.013,4.126-14.013,0-2.8-42.177-5.138-93.982-5.138S60,80.836,60,83.638c2.292,0,4.126,6.54,4.126,14.013,0,7.007-1.375,12.612-3.209,14.013,7.794-2.336,46.762-4.2,93.524-4.2C200.744,107.461,239.712,109.33,247.506,111.665Z" transform="translate(-59.083 -78.5)"/>
            <path id="XMLID_1093_" class="cls-4" d="M248.681,90.305h0v-.934c-.458,0-.458,0-.917-.467-7.794-2.336-46.762-4.2-93.524-4.2s-85.272,1.868-93.524,4.2c-.458,0-.458.467-.917.467v.934h0c2.751-2.8,44.011-5.138,93.982-5.138C205.129,85.167,245.931,87.5,248.681,90.305Z" transform="translate(-59.8 -55.739)"/>
          </g>
        </g>
        <ellipse id="XMLID_1090_" class="cls-8" cx="29.341" cy="29.895" rx="29.341" ry="29.895" transform="translate(66.475 125.187)"/>
        <ellipse id="XMLID_1089_" class="cls-9" cx="63.266" cy="64.462" rx="63.266" ry="64.462" transform="translate(32.55 90.62)"/>
      </g>
      <line id="XMLID_1087_" class="cls-10" y1="155.549" transform="translate(95.816)"/>
    </g>
    <g id="XMLID_1053_" transform="translate(1139.249)">
      <g id="XMLID_1055_" transform="translate(0 135.463)">
        <g id="XMLID_1058_">
          <path id="XMLID_1085_" class="cls-1" d="M398.873,29C348.9,29,308.1,32.737,308.1,37.408v4.2c0-4.671,40.344-8.408,90.773-8.408,49.971,0,90.773,3.737,90.773,8.408v-4.2C489.646,32.737,448.844,29,398.873,29Z" transform="translate(-308.1 -29)"/>
          <ellipse id="XMLID_1084_" class="cls-2" cx="90.773" cy="8.408" rx="90.773" ry="8.408" transform="translate(0 4.204)"/>
          <ellipse id="XMLID_1083_" class="cls-3" cx="88.939" cy="5.138" rx="88.939" ry="5.138" transform="translate(1.834 231.222)"/>
          <g id="XMLID_1080_" transform="translate(1.833 7.007)">
            <path id="XMLID_1082_" class="cls-4" d="M485.462,62.264c-1.834-1.4-2.751-6.54-2.751-13.079,0-7.474,1.834-13.546,3.668-13.546,0-2.8-39.885-5.138-88.939-5.138S308.5,32.836,308.5,35.638c1.834,0,3.667,6.073,3.667,13.546,0,6.54-1.375,11.678-2.751,13.079,7.335-2.336,44.011-4.2,88.022-4.2S478.126,59.928,485.462,62.264Z" transform="translate(-308.5 -30.5)"/>
            <path id="XMLID_1081_" class="cls-5" d="M486.379,41.905h0v-.934c-.458,0-.458,0-.917-.467-7.335-2.336-44.011-4.2-88.022-4.2s-80.687,1.868-88.022,4.2c-.458,0-.458.467-.917.467v.934h0c2.751-2.8,41.26-4.671,88.939-4.671S483.628,39.57,486.379,41.905Z" transform="translate(-308.5 -9.207)"/>
          </g>
          <g id="XMLID_1077_" transform="translate(1.833 35.034)">
            <path id="XMLID_1079_" class="cls-6" d="M485.462,68.264c-1.834-1.4-2.751-6.54-2.751-13.079,0-7.474,1.834-13.546,3.668-13.546,0-2.8-39.885-5.138-88.939-5.138S308.5,38.836,308.5,41.638c1.834,0,3.667,6.072,3.667,13.546,0,6.54-1.375,11.678-2.751,13.079,7.335-2.336,44.011-4.2,88.022-4.2S478.126,65.928,485.462,68.264Z" transform="translate(-308.5 -36.5)"/>
            <path id="XMLID_1078_" class="cls-5" d="M486.379,47.905h0v-.934c-.458,0-.458,0-.917-.467-7.335-2.336-44.011-4.2-88.022-4.2s-80.687,1.868-88.022,4.2c-.458,0-.458.467-.917.467v.934h0c2.751-2.8,41.26-4.671,88.939-4.671S483.628,45.57,486.379,47.905Z" transform="translate(-308.5 -15.207)"/>
          </g>
          <g id="XMLID_1074_" transform="translate(1.833 63.06)">
            <path id="XMLID_1076_" class="cls-4" d="M485.462,74.264c-1.834-1.4-2.751-6.54-2.751-13.079,0-7.474,1.834-13.546,3.668-13.546,0-2.8-39.885-5.138-88.939-5.138S308.5,44.836,308.5,47.638c1.834,0,3.667,6.072,3.667,13.546,0,6.54-1.375,11.678-2.751,13.079,7.335-2.336,44.011-4.2,88.022-4.2S478.126,71.928,485.462,74.264Z" transform="translate(-308.5 -42.5)"/>
            <path id="XMLID_1075_" class="cls-5" d="M486.379,53.905h0v-.934c-.458,0-.458,0-.917-.467-7.335-2.336-44.011-4.2-88.022-4.2s-80.687,1.868-88.022,4.2c-.458,0-.458.467-.917.467v.934h0c2.751-2.8,41.26-4.671,88.939-4.671S483.628,51.57,486.379,53.905Z" transform="translate(-308.5 -21.207)"/>
          </g>
          <g id="XMLID_1071_" transform="translate(1.833 91.087)">
            <path id="XMLID_1073_" class="cls-6" d="M485.462,80.264c-1.834-1.4-2.751-6.54-2.751-13.079,0-7.474,1.834-13.546,3.668-13.546,0-2.8-39.885-5.138-88.939-5.138S308.5,50.836,308.5,53.638c1.834,0,3.667,6.072,3.667,13.546,0,6.54-1.375,11.678-2.751,13.079,7.335-2.336,44.011-4.2,88.022-4.2S478.126,77.928,485.462,80.264Z" transform="translate(-308.5 -48.5)"/>
            <path id="XMLID_1072_" class="cls-5" d="M486.379,59.905h0v-.934c-.458,0-.458,0-.917-.467-7.335-2.336-44.011-4.2-88.022-4.2s-80.687,1.868-88.022,4.2c-.458,0-.458.467-.917.467v.934h0c2.751-2.8,41.26-4.671,88.939-4.671S483.628,57.57,486.379,59.905Z" transform="translate(-308.5 -27.207)"/>
          </g>
          <g id="XMLID_1068_" transform="translate(1.833 119.114)">
            <path id="XMLID_1070_" class="cls-4" d="M485.462,86.264c-1.834-1.4-2.751-6.54-2.751-13.079,0-7.474,1.834-13.546,3.668-13.546,0-2.8-39.885-5.138-88.939-5.138S308.5,56.836,308.5,59.638c1.834,0,3.667,6.072,3.667,13.546,0,6.54-1.375,11.678-2.751,13.079,7.335-2.336,44.011-4.2,88.022-4.2S478.126,83.928,485.462,86.264Z" transform="translate(-308.5 -54.5)"/>
            <path id="XMLID_1069_" class="cls-5" d="M486.379,65.905h0v-.934c-.458,0-.458,0-.917-.467-7.335-2.336-44.011-4.2-88.022-4.2s-80.687,1.868-88.022,4.2c-.458,0-.458.467-.917.467v.934h0c2.751-2.8,41.26-4.671,88.939-4.671S483.628,63.57,486.379,65.905Z" transform="translate(-308.5 -33.207)"/>
          </g>
          <g id="XMLID_1065_" transform="translate(1.833 147.141)">
            <path id="XMLID_1067_" class="cls-7" d="M485.462,92.264c-1.834-1.4-2.751-6.54-2.751-13.079,0-7.474,1.834-13.546,3.668-13.546,0-2.8-39.885-5.138-88.939-5.138S308.5,62.836,308.5,65.638c1.834,0,3.667,6.072,3.667,13.546,0,6.54-1.375,11.678-2.751,13.079,7.335-2.336,44.011-4.2,88.022-4.2S478.126,89.928,485.462,92.264Z" transform="translate(-308.5 -60.5)"/>
            <path id="XMLID_1066_" class="cls-5" d="M486.379,71.905h0v-.934c-.458,0-.458,0-.917-.467-7.335-2.336-44.011-4.2-88.022-4.2s-80.687,1.868-88.022,4.2c-.458,0-.458.467-.917.467v.934h0c2.751-2.8,41.26-4.671,88.939-4.671S483.628,69.57,486.379,71.905Z" transform="translate(-308.5 -39.207)"/>
          </g>
          <g id="XMLID_1062_" transform="translate(1.833 175.168)">
            <path id="XMLID_1064_" class="cls-4" d="M485.462,98.264c-1.834-1.4-2.751-6.54-2.751-13.079,0-7.474,1.834-13.546,3.668-13.546,0-2.8-39.885-5.138-88.939-5.138S308.5,68.836,308.5,71.638c1.834,0,3.667,6.073,3.667,13.546,0,6.54-1.375,11.678-2.751,13.079,7.335-2.336,44.011-4.2,88.022-4.2S478.126,95.928,485.462,98.264Z" transform="translate(-308.5 -66.5)"/>
            <path id="XMLID_1063_" class="cls-5" d="M486.379,78.005h0v-.934c-.458,0-.458,0-.917-.467-7.335-2.336-44.011-4.2-88.022-4.2s-80.687,1.868-88.022,4.2c-.458,0-.458.467-.917.467v.934h0c2.751-2.8,41.26-4.671,88.939-4.671C445.118,72.867,483.628,75.2,486.379,78.005Z" transform="translate(-308.5 -44.84)"/>
          </g>
          <g id="XMLID_1059_" transform="translate(1.833 203.195)">
            <path id="XMLID_1061_" class="cls-7" d="M485.462,104.264c-1.834-1.4-2.751-6.54-2.751-13.079,0-7.474,1.834-13.546,3.668-13.546,0-2.8-39.885-5.138-88.939-5.138S308.5,74.836,308.5,77.638c1.834,0,3.667,6.073,3.667,13.546,0,6.54-1.375,11.678-2.751,13.079,7.335-2.336,44.011-4.2,88.022-4.2S478.126,101.928,485.462,104.264Z" transform="translate(-308.5 -72.5)"/>
            <path id="XMLID_1060_" class="cls-4" d="M486.379,84.005h0v-.934c-.458,0-.458,0-.917-.467-7.335-2.336-44.011-4.2-88.022-4.2s-80.687,1.868-88.022,4.2c-.458,0-.458.467-.917.467v.934h0c2.751-2.8,41.26-4.671,88.939-4.671C445.118,78.867,483.628,81.2,486.379,84.005Z" transform="translate(-308.5 -50.84)"/>
          </g>
        </g>
        <ellipse id="XMLID_1057_" class="cls-8" cx="27.507" cy="28.027" rx="27.507" ry="28.027" transform="translate(63.266 118.647)"/>
        <ellipse id="XMLID_1056_" class="cls-9" cx="60.057" cy="61.192" rx="60.057" ry="61.192" transform="translate(30.716 85.482)"/>
      </g>
      <line id="XMLID_1054_" class="cls-10" y1="139.667" transform="translate(90.773)"/>
    </g>
    <g id="XMLID_1020_" transform="translate(400.227)">
      <g id="XMLID_1022_" transform="translate(0 204.596)">
        <g id="XMLID_1025_">
          <path id="XMLID_1052_" class="cls-1" d="M220.71,43.8c-40.8,0-73.81,2.8-73.81,6.54v3.737c0-3.737,33.008-6.54,73.81-6.54s73.811,2.8,73.811,6.54v-3.27C294.521,47.07,261.513,43.8,220.71,43.8Z" transform="translate(-146.9 -43.8)"/>
          <ellipse id="XMLID_1051_" class="cls-2" cx="73.81" cy="6.54" rx="73.81" ry="6.54" transform="translate(0 3.737)"/>
          <ellipse id="XMLID_1050_" class="cls-3" cx="72.435" cy="4.204" rx="72.435" ry="4.204" transform="translate(1.375 187.78)"/>
          <g id="XMLID_1047_" transform="translate(1.375 5.605)">
            <path id="XMLID_1049_" class="cls-4" d="M291.153,70.691c-1.375-.934-2.292-5.605-2.292-10.744,0-6.072,1.375-10.744,3.209-10.744,0-2.336-32.55-4.2-72.435-4.2S147.2,46.868,147.2,49.2c1.834,0,3.209,4.671,3.209,10.744,0,5.138-.917,9.809-2.292,10.744,5.96-1.868,35.759-3.27,71.518-3.27S285.193,68.823,291.153,70.691Z" transform="translate(-147.2 -45)"/>
            <path id="XMLID_1048_" class="cls-5" d="M291.253,54.371h0v-.934a.452.452,0,0,1-.458-.467c-5.96-1.868-35.759-3.27-71.518-3.27s-65.558,1.4-71.518,3.27l-.458.467V53.9h0c2.292-2.336,33.467-3.737,71.977-3.737C257.786,50.634,289.42,52.5,291.253,54.371Z" transform="translate(-146.842 -27.746)"/>
          </g>
          <g id="XMLID_1044_" transform="translate(1.375 28.494)">
            <path id="XMLID_1046_" class="cls-6" d="M291.153,75.591c-1.375-.934-2.292-5.605-2.292-10.744,0-6.072,1.375-10.744,3.209-10.744,0-2.336-32.55-4.2-72.435-4.2S147.2,51.768,147.2,54.1c1.834,0,3.209,4.671,3.209,10.744,0,5.138-.917,9.809-2.292,10.744,5.96-1.868,35.759-3.27,71.518-3.27S285.193,73.723,291.153,75.591Z" transform="translate(-147.2 -49.9)"/>
            <path id="XMLID_1045_" class="cls-5" d="M291.253,59.271h0v-.934a.452.452,0,0,1-.458-.467c-5.96-1.868-35.759-3.27-71.518-3.27s-65.558,1.4-71.518,3.27l-.458.467V58.8h0c2.292-2.336,33.467-3.737,71.977-3.737C257.786,55.534,289.42,57.4,291.253,59.271Z" transform="translate(-146.842 -32.646)"/>
          </g>
          <g id="XMLID_1041_" transform="translate(1.375 51.383)">
            <path id="XMLID_1043_" class="cls-4" d="M291.153,80.491c-1.375-.934-2.292-5.605-2.292-10.744,0-6.072,1.375-10.744,3.209-10.744,0-2.336-32.55-4.2-72.435-4.2S147.2,56.668,147.2,59c1.834,0,3.209,4.671,3.209,10.744,0,5.138-.917,9.809-2.292,10.744,5.96-1.868,35.759-3.27,71.518-3.27S285.193,78.623,291.153,80.491Z" transform="translate(-147.2 -54.8)"/>
            <path id="XMLID_1042_" class="cls-5" d="M291.253,64.171h0v-.934a.452.452,0,0,1-.458-.467c-5.96-1.868-35.759-3.27-71.518-3.27s-65.558,1.4-71.518,3.27l-.458.467V63.7h0c2.292-2.336,33.467-3.737,71.977-3.737C257.786,60.434,289.42,61.836,291.253,64.171Z" transform="translate(-146.842 -37.546)"/>
          </g>
          <g id="XMLID_1038_" transform="translate(1.375 74.271)">
            <path id="XMLID_1040_" class="cls-6" d="M291.153,85.391c-1.375-.934-2.292-5.605-2.292-10.744,0-6.072,1.375-10.744,3.209-10.744,0-2.336-32.55-4.2-72.435-4.2S147.2,61.568,147.2,63.9c1.834,0,3.209,4.671,3.209,10.744,0,5.138-.917,9.809-2.292,10.744,5.96-1.868,35.759-3.27,71.518-3.27C255.394,81.654,285.193,83.056,291.153,85.391Z" transform="translate(-147.2 -59.7)"/>
            <path id="XMLID_1039_" class="cls-5" d="M291.253,69.071h0v-.934a.452.452,0,0,1-.458-.467c-5.96-1.868-35.759-3.27-71.518-3.27s-65.558,1.4-71.518,3.27l-.458.467V68.6h0c2.292-2.336,33.467-3.737,71.977-3.737S289.42,66.736,291.253,69.071Z" transform="translate(-146.842 -42.446)"/>
          </g>
          <g id="XMLID_1035_" transform="translate(1.375 96.693)">
            <path id="XMLID_1037_" class="cls-4" d="M291.153,90.191c-1.375-.934-2.292-5.605-2.292-10.744,0-6.072,1.375-10.744,3.209-10.744,0-2.336-32.55-4.2-72.435-4.2S147.2,66.368,147.2,68.7c1.834,0,3.209,4.671,3.209,10.744,0,5.138-.917,9.809-2.292,10.744,5.96-1.868,35.759-3.27,71.518-3.27S285.193,88.323,291.153,90.191Z" transform="translate(-147.2 -64.5)"/>
            <path id="XMLID_1036_" class="cls-5" d="M291.253,73.871h0v-.934a.452.452,0,0,1-.458-.467c-5.96-1.868-35.759-3.27-71.518-3.27s-65.558,1.4-71.518,3.27l-.458.467V73.4h0c2.292-2.336,33.467-3.737,71.977-3.737C257.786,70.134,289.42,72,291.253,73.871Z" transform="translate(-146.842 -47.246)"/>
          </g>
          <g id="XMLID_1032_" transform="translate(1.375 119.581)">
            <path id="XMLID_1034_" class="cls-7" d="M291.153,95.091c-1.375-.934-2.292-5.605-2.292-10.744,0-6.073,1.375-10.744,3.209-10.744,0-2.336-32.55-4.2-72.435-4.2S147.2,71.268,147.2,73.6c1.834,0,3.209,4.671,3.209,10.744,0,5.138-.917,9.809-2.292,10.744,5.96-1.868,35.759-3.27,71.518-3.27S285.193,93.223,291.153,95.091Z" transform="translate(-147.2 -69.4)"/>
            <path id="XMLID_1033_" class="cls-5" d="M291.253,78.771h0v-.934a.452.452,0,0,1-.458-.467c-5.96-1.868-35.759-3.27-71.518-3.27s-65.558,1.4-71.518,3.27l-.458.467V78.3h0c2.292-2.336,33.467-3.737,71.977-3.737C257.786,75.034,289.42,76.9,291.253,78.771Z" transform="translate(-146.842 -52.146)"/>
          </g>
          <g id="XMLID_1029_" transform="translate(1.375 142.47)">
            <path id="XMLID_1031_" class="cls-4" d="M291.153,99.991c-1.375-.934-2.292-5.605-2.292-10.744,0-6.073,1.375-10.744,3.209-10.744,0-2.336-32.55-4.2-72.435-4.2S147.2,76.168,147.2,78.5c1.834,0,3.209,4.671,3.209,10.744,0,5.138-.917,9.809-2.292,10.744,5.96-1.868,35.759-3.27,71.518-3.27S285.193,98.123,291.153,99.991Z" transform="translate(-147.2 -74.3)"/>
            <path id="XMLID_1030_" class="cls-5" d="M291.253,83.671h0v-.934a.452.452,0,0,1-.458-.467C284.835,80.4,255.036,79,219.277,79s-65.558,1.4-71.518,3.27l-.458.467v.934h0c2.292-2.336,33.467-3.737,71.977-3.737S289.42,81.336,291.253,83.671Z" transform="translate(-146.842 -57.046)"/>
          </g>
          <g id="XMLID_1026_" transform="translate(1.375 165.358)">
            <path id="XMLID_1028_" class="cls-7" d="M291.153,104.891c-1.375-.934-2.292-5.605-2.292-10.744,0-6.072,1.375-10.744,3.209-10.744,0-2.336-32.55-4.2-72.435-4.2S147.2,81.068,147.2,83.4c1.834,0,3.209,4.671,3.209,10.744,0,5.138-.917,9.809-2.292,10.744,5.96-1.868,35.759-3.27,71.518-3.27C255.394,101.154,285.193,102.556,291.153,104.891Z" transform="translate(-147.2 -79.2)"/>
            <path id="XMLID_1027_" class="cls-4" d="M291.253,88.571h0v-.934a.452.452,0,0,1-.458-.467c-5.96-1.868-35.759-3.27-71.518-3.27s-65.558,1.4-71.518,3.27l-.458.467V88.1h0c2.292-2.336,33.467-3.737,71.977-3.737S289.42,86.236,291.253,88.571Z" transform="translate(-146.842 -61.946)"/>
          </g>
        </g>
        <ellipse id="XMLID_1024_" class="cls-8" cx="22.464" cy="22.889" rx="22.464" ry="22.889" transform="translate(51.346 96.226)"/>
        <ellipse id="XMLID_1023_" class="cls-9" cx="48.596" cy="49.514" rx="48.596" ry="49.514" transform="translate(25.215 69.6)"/>
      </g>
      <line id="XMLID_1021_" class="cls-10" y1="207.866" transform="translate(73.811)"/>
    </g>
    <g id="XMLID_1020_2" data-name="XMLID_1020_" transform="translate(813.387 -6.12)">
      <g id="XMLID_1022_2" data-name="XMLID_1022_" transform="translate(0 140.397)">
        <g id="XMLID_1025_2" data-name="XMLID_1025_">
          <path id="XMLID_1052_2" data-name="XMLID_1052_" class="cls-1" d="M197.55,43.8c-28,0-50.65,1.923-50.65,4.488v2.564c0-2.564,22.651-4.488,50.65-4.488s50.65,1.923,50.65,4.488V48.608C248.2,46.044,225.549,43.8,197.55,43.8Z" transform="translate(-146.9 -43.8)"/>
          <ellipse id="XMLID_1051_2" data-name="XMLID_1051_" class="cls-2" cx="50.65" cy="4.488" rx="50.65" ry="4.488" transform="translate(0 2.564)"/>
          <ellipse id="XMLID_1050_2" data-name="XMLID_1050_" class="cls-3" cx="49.706" cy="2.885" rx="49.706" ry="2.885" transform="translate(0.944 128.858)"/>
          <g id="XMLID_1047_2" data-name="XMLID_1047_" transform="translate(0.944 3.847)">
            <path id="XMLID_1049_2" data-name="XMLID_1049_" class="cls-4" d="M245.983,62.63c-.944-.641-1.573-3.847-1.573-7.372,0-4.167.944-7.372,2.2-7.372,0-1.6-22.336-2.885-49.706-2.885S147.2,46.282,147.2,47.885c1.258,0,2.2,3.205,2.2,7.372,0,3.526-.629,6.731-1.573,7.372,4.09-1.282,24.538-2.244,49.077-2.244S241.893,61.348,245.983,62.63Z" transform="translate(-147.2 -45)"/>
            <path id="XMLID_1048_2" data-name="XMLID_1048_" class="cls-5" d="M246.083,52.905h0v-.641a.31.31,0,0,1-.315-.321c-4.09-1.282-24.538-2.244-49.077-2.244s-44.987.962-49.077,2.244l-.315.321v.321h0c1.573-1.6,22.965-2.564,49.392-2.564C223.118,50.341,244.825,51.623,246.083,52.905Z" transform="translate(-146.985 -34.635)"/>
          </g>
          <g id="XMLID_1044_2" data-name="XMLID_1044_" transform="translate(0.944 19.553)">
            <path id="XMLID_1046_2" data-name="XMLID_1046_" class="cls-6" d="M245.983,67.53c-.944-.641-1.573-3.847-1.573-7.372,0-4.167.944-7.372,2.2-7.372,0-1.6-22.336-2.885-49.706-2.885S147.2,51.182,147.2,52.785c1.258,0,2.2,3.205,2.2,7.372,0,3.526-.629,6.731-1.573,7.372,4.09-1.282,24.538-2.244,49.077-2.244S241.893,66.248,245.983,67.53Z" transform="translate(-147.2 -49.9)"/>
            <path id="XMLID_1045_2" data-name="XMLID_1045_" class="cls-5" d="M246.083,57.805h0v-.641a.31.31,0,0,1-.315-.321c-4.09-1.282-24.538-2.244-49.077-2.244s-44.987.962-49.077,2.244l-.315.321v.321h0c1.573-1.6,22.965-2.564,49.392-2.564C223.118,55.241,244.825,56.523,246.083,57.805Z" transform="translate(-146.985 -39.535)"/>
          </g>
          <g id="XMLID_1041_2" data-name="XMLID_1041_" transform="translate(0.944 35.26)">
            <path id="XMLID_1043_2" data-name="XMLID_1043_" class="cls-4" d="M245.983,72.43c-.944-.641-1.573-3.846-1.573-7.372,0-4.167.944-7.372,2.2-7.372,0-1.6-22.336-2.885-49.706-2.885S147.2,56.082,147.2,57.685c1.258,0,2.2,3.205,2.2,7.372,0,3.526-.629,6.731-1.573,7.372,4.09-1.282,24.538-2.244,49.077-2.244S241.893,71.148,245.983,72.43Z" transform="translate(-147.2 -54.8)"/>
            <path id="XMLID_1042_2" data-name="XMLID_1042_" class="cls-5" d="M246.083,62.705h0v-.641a.31.31,0,0,1-.315-.321c-4.09-1.282-24.538-2.244-49.077-2.244s-44.987.962-49.077,2.244l-.315.321v.321h0c1.573-1.6,22.965-2.564,49.392-2.564C223.118,60.141,244.825,61.1,246.083,62.705Z" transform="translate(-146.985 -44.435)"/>
          </g>
          <g id="XMLID_1038_2" data-name="XMLID_1038_" transform="translate(0.944 50.966)">
            <path id="XMLID_1040_2" data-name="XMLID_1040_" class="cls-6" d="M245.983,77.33c-.944-.641-1.573-3.847-1.573-7.372,0-4.167.944-7.372,2.2-7.372,0-1.6-22.336-2.885-49.706-2.885S147.2,60.982,147.2,62.585c1.258,0,2.2,3.205,2.2,7.372,0,3.526-.629,6.731-1.573,7.372,4.09-1.282,24.538-2.244,49.077-2.244C221.445,74.765,241.893,75.727,245.983,77.33Z" transform="translate(-147.2 -59.7)"/>
            <path id="XMLID_1039_2" data-name="XMLID_1039_" class="cls-5" d="M246.083,67.605h0v-.641a.31.31,0,0,1-.315-.321c-4.09-1.282-24.538-2.244-49.077-2.244s-44.987.962-49.077,2.244l-.315.321v.321h0c1.573-1.6,22.965-2.564,49.392-2.564S244.825,66,246.083,67.605Z" transform="translate(-146.985 -49.334)"/>
          </g>
          <g id="XMLID_1035_2" data-name="XMLID_1035_" transform="translate(0.944 66.352)">
            <path id="XMLID_1037_2" data-name="XMLID_1037_" class="cls-4" d="M245.983,82.13c-.944-.641-1.573-3.847-1.573-7.372,0-4.167.944-7.372,2.2-7.372,0-1.6-22.336-2.885-49.706-2.885S147.2,65.782,147.2,67.385c1.258,0,2.2,3.205,2.2,7.372,0,3.526-.629,6.731-1.573,7.372,4.09-1.282,24.538-2.244,49.077-2.244S241.893,80.848,245.983,82.13Z" transform="translate(-147.2 -64.5)"/>
            <path id="XMLID_1036_2" data-name="XMLID_1036_" class="cls-5" d="M246.083,72.405h0v-.641a.31.31,0,0,1-.315-.321c-4.09-1.282-24.538-2.244-49.077-2.244s-44.987.962-49.077,2.244l-.315.321v.321h0c1.573-1.6,22.965-2.564,49.392-2.564C223.118,69.841,244.825,71.123,246.083,72.405Z" transform="translate(-146.985 -54.135)"/>
          </g>
          <g id="XMLID_1032_2" data-name="XMLID_1032_" transform="translate(0.944 82.059)">
            <path id="XMLID_1034_2" data-name="XMLID_1034_" class="cls-7" d="M245.983,87.03c-.944-.641-1.573-3.847-1.573-7.372,0-4.167.944-7.372,2.2-7.372,0-1.6-22.336-2.885-49.706-2.885S147.2,70.682,147.2,72.285c1.258,0,2.2,3.205,2.2,7.372,0,3.526-.629,6.731-1.573,7.372,4.09-1.282,24.538-2.244,49.077-2.244S241.893,85.748,245.983,87.03Z" transform="translate(-147.2 -69.4)"/>
            <path id="XMLID_1033_2" data-name="XMLID_1033_" class="cls-5" d="M246.083,77.305h0v-.641a.31.31,0,0,1-.315-.321c-4.09-1.282-24.538-2.244-49.077-2.244s-44.987.962-49.077,2.244l-.315.321v.321h0c1.573-1.6,22.965-2.564,49.392-2.564C223.118,74.741,244.825,76.023,246.083,77.305Z" transform="translate(-146.985 -59.035)"/>
          </g>
          <g id="XMLID_1029_2" data-name="XMLID_1029_" transform="translate(0.944 97.765)">
            <path id="XMLID_1031_2" data-name="XMLID_1031_" class="cls-4" d="M245.983,91.93c-.944-.641-1.573-3.846-1.573-7.372,0-4.167.944-7.372,2.2-7.372,0-1.6-22.336-2.885-49.706-2.885S147.2,75.582,147.2,77.185c1.258,0,2.2,3.205,2.2,7.372,0,3.526-.629,6.731-1.573,7.372,4.09-1.282,24.538-2.244,49.077-2.244S241.893,90.648,245.983,91.93Z" transform="translate(-147.2 -74.3)"/>
            <path id="XMLID_1030_2" data-name="XMLID_1030_" class="cls-5" d="M246.083,82.205h0v-.641a.31.31,0,0,1-.315-.321C241.679,79.962,221.23,79,196.692,79s-44.987.962-49.077,2.244l-.315.321v.641h0c1.573-1.6,22.965-2.564,49.392-2.564S244.825,80.6,246.083,82.205Z" transform="translate(-146.985 -63.935)"/>
          </g>
          <g id="XMLID_1026_2" data-name="XMLID_1026_" transform="translate(0.944 113.472)">
            <path id="XMLID_1028_2" data-name="XMLID_1028_" class="cls-7" d="M245.983,96.83c-.944-.641-1.573-3.847-1.573-7.372,0-4.167.944-7.372,2.2-7.372,0-1.6-22.336-2.885-49.706-2.885S147.2,80.482,147.2,82.085c1.258,0,2.2,3.205,2.2,7.372,0,3.526-.629,6.731-1.573,7.372,4.09-1.282,24.538-2.244,49.077-2.244C221.445,94.265,241.893,95.227,245.983,96.83Z" transform="translate(-147.2 -79.2)"/>
            <path id="XMLID_1027_2" data-name="XMLID_1027_" class="cls-4" d="M246.083,87.105h0v-.641a.31.31,0,0,1-.315-.321c-4.09-1.282-24.538-2.244-49.077-2.244s-44.987.962-49.077,2.244l-.315.321v.321h0c1.573-1.6,22.965-2.564,49.392-2.564S244.825,85.5,246.083,87.105Z" transform="translate(-146.985 -68.835)"/>
          </g>
        </g>
        <ellipse id="XMLID_1024_2" data-name="XMLID_1024_" class="cls-8" cx="15.415" cy="15.707" rx="15.415" ry="15.707" transform="translate(35.235 66.032)"/>
        <ellipse id="XMLID_1023_2" data-name="XMLID_1023_" class="cls-9" cx="33.347" cy="33.977" rx="33.347" ry="33.977" transform="translate(17.303 47.761)"/>
      </g>
      <line id="XMLID_1021_2" data-name="XMLID_1021_" class="cls-10" y1="142.641" transform="translate(50.65)"/>
    </g>
  </g>
</svg>
