<svg xmlns="http://www.w3.org/2000/svg" viewBox="1407.407 2569.001 144.115 138.897">
  <defs>
    <style>
      .cls-1 {
        fill: #562d15;
      }

      .cls-2 {
        fill: #d4d4d4;
      }

      .cls-3 {
        fill: #e4e4e2;
      }

      .cls-4 {
        fill: #b8b8b9;
      }

      .cls-5 {
        fill: #828282;
      }

      .cls-6 {
        fill: #37160f;
      }
    </style>
  </defs>
  <g id="vanilla_1_" transform="translate(1407.407 2569.001)">
    <path id="Path_172" data-name="Path 172" class="cls-1" d="M755.76,389.624c-.482-8.673-6.425-15.9-11.243-22.647-3.212-4.5-5.782-6.585-9.637-10.44-4.819-4.979-9.155-10.6-15.259-13.653-7.71-4.016-15.259-6.425-23.611-8.673-2.57-.642-9.637,0-12.207-.161-4.176-.161-13.653,3.212-17.668,4.5-10.44,3.534-13.813,5.3-23.129,11.565-2.088,1.285-7.228,5.3-8.674,7.389-1.285,1.927-3.373,4.5-4.5,6.585-3.212,6.1-4.979,9.637-8.673,15.419-2.57,4.176-3.855,8.995-5.14,13.813a45.693,45.693,0,0,0-1.446,6.746c-.964,8.031,1.767,14.938,3.694,22.647a68.777,68.777,0,0,0,5.943,15.58,49.081,49.081,0,0,0,7.067,10.28,43.609,43.609,0,0,1,4.979,6.1c6.907,10.922,13.813,10.44,27.466,14.134,18.471,5.14,31,4.819,41.279,1.927,5.14-1.446,8.192-2.891,10.28-3.373,2.57-.642,6.585-1.124,9.155-2.249,6.907-3.052,8.352-3.855,14.135-8.834,1.767-1.446,4.176-6.746,5.461-8.834,2.088-3.212,3.373-4.658,5.14-8.192.964-1.927,3.052-4.5,3.855-6.585,2.409-6.1,5.3-12.689,5.461-19.274C758.491,407.613,756.081,395.567,755.76,389.624Z" transform="translate(-614.375 -333.918)"/>
    <g id="Group_2302" data-name="Group 2302" transform="translate(19.635 38.198)">
      <path id="Path_173" data-name="Path 173" class="cls-2" d="M679.062,390.017c-28.912,0-52.362-8.834-52.362-19.917a52.362,52.362,0,0,0,104.724,0C731.424,381.022,707.974,390.017,679.062,390.017Z" transform="translate(-626.539 -350.183)"/>
      <path id="Path_174" data-name="Path 174" class="cls-3" d="M719.759,382.628A47.428,47.428,0,0,1,626.6,370.1a52.362,52.362,0,0,0,104.724,0C731.485,374.758,726.987,379.255,719.759,382.628Z" transform="translate(-626.6 -350.183)"/>
      <ellipse id="Ellipse_1057" data-name="Ellipse 1057" class="cls-4" cx="52.362" cy="19.917" rx="52.362" ry="19.917" transform="translate(0.161)"/>
      <path id="Path_175" data-name="Path 175" class="cls-5" d="M641.2,382.279a126.972,126.972,0,0,0,58.144,0c-7.067-3.052-17.508-4.979-29.072-4.979C658.547,377.3,648.267,379.227,641.2,382.279Z" transform="translate(-617.75 -345.819)"/>
      <path id="Path_176" data-name="Path 176" class="cls-6" d="M634.8,381.937c9.637,4.176,23.611,6.746,39.191,6.746s29.715-2.57,39.191-6.746c-8.031-5.782-22.647-9.637-39.191-9.637S642.831,376.155,634.8,381.937Z" transform="translate(-621.629 -348.85)"/>
    </g>
  </g>
</svg>
