<svg xmlns="http://www.w3.org/2000/svg" viewBox="1216.592 2826.796 144.115 138.897">
  <defs>
    <style>
      .cls-1 {
        fill: #562d15;
      }

      .cls-2 {
        fill: #c3c3c3;
      }

      .cls-3 {
        fill: #fce77b;
      }

      .cls-4 {
        fill: #acacac;
      }

      .cls-5 {
        fill: #e1e1e0;
      }

      .cls-6, .cls-7 {
        fill: #fff;
      }

      .cls-7 {
        font-size: 6px;
        font-family: Aller-Regular, Aller;
      }
    </style>
  </defs>
  <g id="salt_1_" transform="translate(1216.592 2826.796)">
    <path id="Path_183" data-name="Path 183" class="cls-1" d="M636.96,550.124c-.482-8.673-6.425-15.9-11.243-22.647-3.212-4.5-5.782-6.585-9.637-10.44-4.819-4.979-9.155-10.6-15.259-13.653-7.71-4.016-15.259-6.425-23.611-8.673-2.57-.642-9.637,0-12.207-.161-4.176-.161-13.653,3.212-17.668,4.5-10.44,3.534-13.813,5.3-23.129,11.565-2.088,1.285-7.228,5.3-8.673,7.388-1.285,1.927-3.373,4.5-4.5,6.585-3.212,6.1-4.979,9.637-8.673,15.419-2.57,4.176-3.855,8.995-5.14,13.813a45.685,45.685,0,0,0-1.446,6.746c-.964,8.031,1.767,14.938,3.694,22.647a68.78,68.78,0,0,0,5.943,15.58,49.08,49.08,0,0,0,7.067,10.28,43.626,43.626,0,0,1,4.979,6.1c6.907,10.922,13.813,10.44,27.466,14.135,18.471,5.14,31,4.819,41.279,1.927,5.14-1.446,8.192-2.891,10.28-3.373,2.57-.643,6.585-1.124,9.155-2.249,6.907-3.052,8.352-3.855,14.135-8.834,1.767-1.446,4.176-6.746,5.461-8.834,2.088-3.212,3.373-4.658,5.14-8.192.964-1.927,3.052-4.5,3.855-6.585,2.409-6.1,5.3-12.689,5.461-19.274C639.691,567.953,637.281,555.906,636.96,550.124Z" transform="translate(-495.575 -494.418)"/>
    <g id="salt_2_" transform="translate(40.837 21.654)">
      <g id="Group_2318" data-name="Group 2318" transform="translate(0 9.958)">
        <path id="Path_184" data-name="Path 184" class="cls-2" d="M521,514.1v14.777c0,5.3,13.974,9.637,31.321,9.637s31.321-4.337,31.321-9.637h0V514.1Z" transform="translate(-521 -514.1)"/>
      </g>
      <g id="Group_2319" data-name="Group 2319" transform="translate(0 24.735)">
        <path id="Path_185" data-name="Path 185" class="cls-3" d="M583.642,582.247V523.3c0,5.3-13.974,9.637-31.321,9.637S521,528.6,521,523.3v58.947c0,5.3,13.974,11.886,31.321,11.886,17.186-.161,31.321-6.586,31.321-11.886Z" transform="translate(-521 -523.3)"/>
      </g>
      <g id="Group_2323" data-name="Group 2323" transform="translate(0 9.958)">
        <g id="Group_2320" data-name="Group 2320" transform="translate(51.077)">
          <path id="Path_186" data-name="Path 186" class="cls-4" d="M552.8,515.224v21.2c7.067-1.767,11.565-4.5,11.565-7.549h0V514.1S552.8,522.613,552.8,515.224Z" transform="translate(-552.8 -514.1)"/>
        </g>
        <g id="Group_2321" data-name="Group 2321" transform="translate(51.077 14.616)">
          <path id="Path_187" data-name="Path 187" class="cls-5" d="M552.8,530.749v60.232c7.067-2.409,11.565-5.782,11.565-8.834h0V523.2C564.2,526.412,559.867,528.982,552.8,530.749Z" transform="translate(-552.8 -523.2)"/>
        </g>
        <g id="Group_2322" data-name="Group 2322" transform="translate(0 14.777)">
          <path id="Path_188" data-name="Path 188" class="cls-6" d="M552.321,532.937C534.974,532.937,521,528.6,521,523.3v58.947c0,5.3,13.974,11.886,31.321,11.886a63.806,63.806,0,0,0,19.756-3.052V530.849A88.74,88.74,0,0,1,552.321,532.937Z" transform="translate(-521 -523.3)"/>
        </g>
      </g>
      <g id="Group_2324" data-name="Group 2324">
        <ellipse id="Ellipse_1060" data-name="Ellipse 1060" class="cls-5" cx="31.321" cy="9.637" rx="31.321" ry="9.637"/>
      </g>
      <g id="Group_2325" data-name="Group 2325" transform="translate(13.171 48.668)">
        <ellipse id="Ellipse_1061" data-name="Ellipse 1061" class="cls-4" cx="18.15" cy="12.046" rx="18.15" ry="12.046"/>
      </g>
      <text id="SALT" class="cls-7" transform="translate(23.394 63.623)"><tspan x="0" y="0">SALT</tspan></text>
    </g>
  </g>
</svg>
