<svg xmlns="http://www.w3.org/2000/svg" viewBox="1216.592 2569.001 144.115 138.897">
  <defs>
    <style>
      .cls-1 {
        fill: #562d15;
      }

      .cls-2 {
        fill: #d4d4d4;
      }

      .cls-3 {
        fill: #e4e4e2;
      }

      .cls-4 {
        fill: #b8b8b9;
      }

      .cls-5 {
        fill: #828282;
      }

      .cls-6 {
        fill: #fff;
      }

      .cls-7 {
        fill: #a7a7a7;
      }
    </style>
  </defs>
  <g id="baking_soda_1_" transform="translate(1216.592 2569.001)">
    <path id="Path_167" data-name="Path 167" class="cls-1" d="M636.96,389.624c-.482-8.673-6.425-15.9-11.243-22.647-3.212-4.5-5.782-6.585-9.637-10.44-4.819-4.979-9.155-10.6-15.259-13.653-7.71-4.016-15.259-6.425-23.611-8.673-2.57-.642-9.637,0-12.207-.161-4.176-.161-13.653,3.212-17.668,4.5-10.44,3.534-13.813,5.3-23.129,11.565-2.088,1.285-7.228,5.3-8.673,7.389-1.285,1.927-3.373,4.5-4.5,6.585-3.212,6.1-4.979,9.637-8.673,15.419-2.57,4.176-3.855,8.995-5.14,13.813a45.685,45.685,0,0,0-1.446,6.746c-.964,8.031,1.767,14.938,3.694,22.647a68.78,68.78,0,0,0,5.943,15.58,49.082,49.082,0,0,0,7.067,10.28,43.619,43.619,0,0,1,4.979,6.1c6.907,10.922,13.813,10.44,27.466,14.134,18.471,5.14,31,4.819,41.279,1.927,5.14-1.446,8.192-2.891,10.28-3.373,2.57-.642,6.585-1.124,9.155-2.249,6.907-3.052,8.352-3.855,14.135-8.834,1.767-1.446,4.176-6.746,5.461-8.834,2.088-3.212,3.373-4.658,5.14-8.192.964-1.927,3.052-4.5,3.855-6.585,2.409-6.1,5.3-12.689,5.461-19.274C639.691,407.613,637.281,395.567,636.96,389.624Z" transform="translate(-495.575 -333.918)"/>
    <g id="Group_2301" data-name="Group 2301" transform="translate(19.635 38.198)">
      <path id="Path_168" data-name="Path 168" class="cls-2" d="M560.262,390.017c-28.911,0-52.362-8.834-52.362-19.917a52.362,52.362,0,0,0,104.724,0C612.624,381.022,589.174,390.017,560.262,390.017Z" transform="translate(-507.739 -350.183)"/>
      <path id="Path_169" data-name="Path 169" class="cls-3" d="M600.959,382.628A47.428,47.428,0,0,1,507.8,370.1a52.362,52.362,0,0,0,104.724,0C612.685,374.758,608.187,379.255,600.959,382.628Z" transform="translate(-507.8 -350.183)"/>
      <ellipse id="Ellipse_1038" data-name="Ellipse 1038" class="cls-4" cx="52.362" cy="19.917" rx="52.362" ry="19.917" transform="translate(0.161)"/>
      <path id="Path_170" data-name="Path 170" class="cls-5" d="M522.4,382.279a126.972,126.972,0,0,0,58.144,0c-7.067-3.052-17.508-4.979-29.072-4.979C539.747,377.3,529.467,379.227,522.4,382.279Z" transform="translate(-498.95 -345.819)"/>
      <g id="Group_2299" data-name="Group 2299" transform="translate(7.71 9.578)">
        <path id="Path_171" data-name="Path 171" class="cls-6" d="M590.019,377.7c-3.534-1.606-4.5-6.1-9.155-8.352-4.658-2.088-7.87-4.5-16.544-5.3s-24.9-.8-28.912,4.819c-2.57,3.534-9.8.482-16.383,7.067-2.249,2.249-4.658,6.425-6.425,8.352,9.155,5.782,25.86,9.637,44.813,9.637,15.58,0,29.715-2.57,39.352-6.746C595.319,382.194,593.552,379.142,590.019,377.7Z" transform="translate(-512.6 -363.663)"/>
      </g>
      <g id="Group_2300" data-name="Group 2300" transform="translate(17.148 14.938)">
        <ellipse id="Ellipse_1039" data-name="Ellipse 1039" class="cls-7" cx="1.446" cy="1.446" rx="1.446" ry="1.446" transform="translate(32.323 7.87)"/>
        <ellipse id="Ellipse_1040" data-name="Ellipse 1040" class="cls-7" cx="1.446" cy="1.446" rx="1.446" ry="1.446" transform="translate(22.686 15.098)"/>
        <ellipse id="Ellipse_1041" data-name="Ellipse 1041" class="cls-7" cx="0.803" cy="0.803" rx="0.803" ry="0.803" transform="translate(35.856 11.404)"/>
        <ellipse id="Ellipse_1042" data-name="Ellipse 1042" class="cls-7" cx="0.803" cy="0.803" rx="0.803" ry="0.803" transform="translate(29.753 10.601)"/>
        <ellipse id="Ellipse_1043" data-name="Ellipse 1043" class="cls-7" cx="0.803" cy="0.803" rx="0.803" ry="0.803" transform="translate(50.955 6.264)"/>
        <ellipse id="Ellipse_1044" data-name="Ellipse 1044" class="cls-7" cx="0.803" cy="0.803" rx="0.803" ry="0.803" transform="translate(42.924)"/>
        <ellipse id="Ellipse_1045" data-name="Ellipse 1045" class="cls-7" cx="0.803" cy="0.803" rx="0.803" ry="0.803" transform="translate(20.116 4.979)"/>
        <ellipse id="Ellipse_1046" data-name="Ellipse 1046" class="cls-7" cx="1.446" cy="1.446" rx="1.446" ry="1.446" transform="translate(51.532 16.712) rotate(-9.811)"/>
        <ellipse id="Ellipse_1047" data-name="Ellipse 1047" class="cls-7" cx="1.446" cy="1.446" rx="1.446" ry="1.446" transform="translate(38.856 19.119) rotate(-9.811)"/>
        <ellipse id="Ellipse_1048" data-name="Ellipse 1048" class="cls-7" cx="1.285" cy="1.285" rx="1.285" ry="1.285" transform="translate(0 14.253) rotate(-9.811)"/>
        <ellipse id="Ellipse_1049" data-name="Ellipse 1049" class="cls-7" cx="0.803" cy="0.803" rx="0.803" ry="0.803" transform="translate(54.719 13.772) rotate(-9.91)"/>
        <ellipse id="Ellipse_1050" data-name="Ellipse 1050" class="cls-7" cx="0.803" cy="0.803" rx="0.803" ry="0.803" transform="translate(66.284 15.723) rotate(-9.91)"/>
        <ellipse id="Ellipse_1051" data-name="Ellipse 1051" class="cls-7" cx="0.803" cy="0.803" rx="0.803" ry="0.803" transform="translate(43.628 17.81) rotate(-9.91)"/>
        <circle id="Ellipse_1052" data-name="Ellipse 1052" class="cls-7" cx="1.446" cy="1.446" r="1.446" transform="translate(4.865 13.713) rotate(-42.098)"/>
        <circle id="Ellipse_1053" data-name="Ellipse 1053" class="cls-7" cx="0.803" cy="0.803" r="0.803" transform="matrix(0.742, -0.671, 0.671, 0.742, 10.001, 14.048)"/>
        <circle id="Ellipse_1054" data-name="Ellipse 1054" class="cls-7" cx="0.803" cy="0.803" r="0.803" transform="translate(25.864 19.235) rotate(-42.074)"/>
        <circle id="Ellipse_1055" data-name="Ellipse 1055" class="cls-7" cx="0.803" cy="0.803" r="0.803" transform="translate(22.966 3.157) rotate(-42.106)"/>
        <circle id="Ellipse_1056" data-name="Ellipse 1056" class="cls-7" cx="0.803" cy="0.803" r="0.803" transform="matrix(0.742, -0.671, 0.671, 0.742, 47.743, 7.868)"/>
      </g>
    </g>
  </g>
</svg>
