<svg xmlns="http://www.w3.org/2000/svg" viewBox="1037.1 5607.485 714.9 463.028">
  <defs>
    <style>
      .cls-1 {
        fill: #414042;
      }

      .cls-2 {
        fill: #808081;
      }

      .cls-3 {
        fill: #b8babc;
      }

      .cls-4 {
        fill: #f4be67;
      }

      .cls-5 {
        fill: #eaa747;
      }

      .cls-6 {
        fill: #ffcc83;
      }
    </style>
  </defs>
  <g id="Group_2412" data-name="Group 2412" transform="translate(90.749 3256.43)">
    <g id="baking_tray_2_" transform="translate(946.351 2351.055)">
      <g id="baking_tray_3_">
        <path id="Path_471" data-name="Path 471" class="cls-1" d="M714.5,449.457a13.459,13.459,0,0,1-13.571,13.572H13.572A13.46,13.46,0,0,1,0,449.457V13.572A13.46,13.46,0,0,1,13.572,0H701.329A13.459,13.459,0,0,1,714.9,13.572V449.457Z"/>
        <path id="Path_472" data-name="Path 472" class="cls-2" d="M676.791,407.059c0,6.786-5.588,11.975-12.773,11.975H18.173c-7.185,0-12.773-5.189-12.773-11.975V18.275C5.4,11.489,10.988,6.3,18.173,6.3H664.018c7.185,0,12.773,5.588,12.773,11.975Z" transform="translate(16.155 18.847)"/>
        <path id="Path_473" data-name="Path 473" class="cls-3" d="M641.875,386.509c0,6.387-5.189,11.177-11.975,11.177H22.375c-6.387,0-11.975-5.189-11.975-11.177V20.477C10.4,14.09,15.589,9.3,22.375,9.3H629.9c6.387,0,11.975,5.189,11.975,11.177V386.509Z" transform="translate(31.113 27.822)"/>
      </g>
    </g>
    <g id="Group_2402" data-name="Group 2402" transform="translate(1013.566 2407.349)">
      <g id="Group_2399" data-name="Group 2399" transform="translate(0 0)">
        <g id="Group_2398" data-name="Group 2398" transform="translate(0 0)">
          <ellipse id="Ellipse_1070" data-name="Ellipse 1070" class="cls-4" cx="68.75" cy="68.75" rx="68.75" ry="68.75" transform="translate(115.149 190.296) rotate(-146.871)"/>
          <path id="Path_474" data-name="Path 474" class="cls-5" d="M225.148,112.438a23.851,23.851,0,0,1,2.5-3.438,68.646,68.646,0,0,0,114.694,75,23.3,23.3,0,0,1-2.188,3.75c-20.626,31.877-63.128,40.627-95,20A69.012,69.012,0,0,1,225.148,112.438Z" transform="translate(-187.547 -54.781)"/>
        </g>
        <path id="Path_475" data-name="Path 475" class="cls-6" d="M311.077,195.317a6.936,6.936,0,0,1,1.25-1.563c.625-1.25,2.188-2.5,3.125-5a55.6,55.6,0,0,0,3.75-8.438,56.977,56.977,0,0,0,2.813-11.563,73.478,73.478,0,0,0,0-14.376,50.311,50.311,0,0,0-4.063-15.626,59.574,59.574,0,0,0-22.189-26.876,69.4,69.4,0,0,0-16.251-7.188,59.485,59.485,0,0,0-33.127.313,63.848,63.848,0,0,0-13.126,5.938,46.2,46.2,0,0,0-9.375,7.188c-2.5,2.5-4.688,4.688-5.938,6.875a24.653,24.653,0,0,0-3.125,5l-.938,1.875a11.283,11.283,0,0,0,1.25-1.563c.938-.938,2.188-2.5,3.75-4.375s4.063-3.75,6.563-5.938a87.692,87.692,0,0,1,9.688-5.938,49.116,49.116,0,0,1,12.5-4.375,55.765,55.765,0,0,1,14.688-1.563c5,0,10.313,1.25,15.313,2.5a56.92,56.92,0,0,1,14.688,6.875A73.986,73.986,0,0,1,304.2,127.814a58.667,58.667,0,0,1,8.438,13.126A82.505,82.505,0,0,1,317.327,155a48.154,48.154,0,0,1,.938,13.126,108.647,108.647,0,0,1-1.563,11.251,71.98,71.98,0,0,1-2.5,8.438,48.8,48.8,0,0,0-2.188,5.313C311.39,194.692,311.077,195.317,311.077,195.317Z" transform="translate(-167.22 -68.594)"/>
      </g>
      <g id="Group_2401" data-name="Group 2401" transform="translate(189.944 0)">
        <g id="Group_2400" data-name="Group 2400" transform="translate(0 0)">
          <path id="Path_480" data-name="Path 480" class="cls-4" d="M68.75,0A68.75,68.75,0,1,1,0,68.75,68.75,68.75,0,0,1,68.75,0Z" transform="translate(115.149 190.296) rotate(-146.871)"/>
          <path id="Path_476" data-name="Path 476" class="cls-5" d="M225.148,112.438a23.851,23.851,0,0,1,2.5-3.438,68.646,68.646,0,0,0,114.694,75,23.3,23.3,0,0,1-2.188,3.75c-20.626,31.877-63.128,40.627-95,20A69.012,69.012,0,0,1,225.148,112.438Z" transform="translate(-187.547 -54.781)"/>
        </g>
        <path id="Path_477" data-name="Path 477" class="cls-6" d="M311.077,195.317a6.936,6.936,0,0,1,1.25-1.563c.625-1.25,2.188-2.5,3.125-5a55.6,55.6,0,0,0,3.75-8.438,56.977,56.977,0,0,0,2.813-11.563,73.478,73.478,0,0,0,0-14.376,50.311,50.311,0,0,0-4.063-15.626,59.574,59.574,0,0,0-22.189-26.876,69.4,69.4,0,0,0-16.251-7.188,59.485,59.485,0,0,0-33.127.313,63.848,63.848,0,0,0-13.126,5.938,46.2,46.2,0,0,0-9.375,7.188c-2.5,2.5-4.688,4.688-5.938,6.875a24.653,24.653,0,0,0-3.125,5l-.938,1.875a11.283,11.283,0,0,0,1.25-1.563c.938-.938,2.188-2.5,3.75-4.375s4.063-3.75,6.563-5.938a87.692,87.692,0,0,1,9.688-5.938,49.116,49.116,0,0,1,12.5-4.375,55.765,55.765,0,0,1,14.688-1.563c5,0,10.313,1.25,15.313,2.5a56.92,56.92,0,0,1,14.688,6.875A73.986,73.986,0,0,1,304.2,127.814a58.667,58.667,0,0,1,8.438,13.126A82.505,82.505,0,0,1,317.327,155a48.154,48.154,0,0,1,.938,13.126,108.647,108.647,0,0,1-1.563,11.251,71.98,71.98,0,0,1-2.5,8.438,48.8,48.8,0,0,0-2.188,5.313C311.39,194.692,311.077,195.317,311.077,195.317Z" transform="translate(-167.22 -68.594)"/>
      </g>
      <g id="Group_2404" data-name="Group 2404" transform="translate(379.887 0)">
        <g id="Group_2403" data-name="Group 2403" transform="translate(0 0)">
          <path id="Path_481" data-name="Path 481" class="cls-4" d="M68.75,0A68.75,68.75,0,1,1,0,68.75,68.75,68.75,0,0,1,68.75,0Z" transform="translate(115.149 190.296) rotate(-146.871)"/>
          <path id="Path_478" data-name="Path 478" class="cls-5" d="M225.148,112.438a23.851,23.851,0,0,1,2.5-3.438,68.646,68.646,0,0,0,114.694,75,23.3,23.3,0,0,1-2.188,3.75c-20.626,31.877-63.128,40.627-95,20A69.012,69.012,0,0,1,225.148,112.438Z" transform="translate(-187.547 -54.781)"/>
        </g>
        <path id="Path_479" data-name="Path 479" class="cls-6" d="M311.077,195.317a6.936,6.936,0,0,1,1.25-1.563c.625-1.25,2.188-2.5,3.125-5a55.6,55.6,0,0,0,3.75-8.438,56.977,56.977,0,0,0,2.813-11.563,73.478,73.478,0,0,0,0-14.376,50.311,50.311,0,0,0-4.063-15.626,59.574,59.574,0,0,0-22.189-26.876,69.4,69.4,0,0,0-16.251-7.188,59.485,59.485,0,0,0-33.127.313,63.848,63.848,0,0,0-13.126,5.938,46.2,46.2,0,0,0-9.375,7.188c-2.5,2.5-4.688,4.688-5.938,6.875a24.653,24.653,0,0,0-3.125,5l-.938,1.875a11.283,11.283,0,0,0,1.25-1.563c.938-.938,2.188-2.5,3.75-4.375s4.063-3.75,6.563-5.938a87.692,87.692,0,0,1,9.688-5.938,49.116,49.116,0,0,1,12.5-4.375,55.765,55.765,0,0,1,14.688-1.563c5,0,10.313,1.25,15.313,2.5a56.92,56.92,0,0,1,14.688,6.875A73.986,73.986,0,0,1,304.2,127.814a58.667,58.667,0,0,1,8.438,13.126A82.505,82.505,0,0,1,317.327,155a48.154,48.154,0,0,1,.938,13.126,108.647,108.647,0,0,1-1.563,11.251,71.98,71.98,0,0,1-2.5,8.438,48.8,48.8,0,0,0-2.188,5.313C311.39,194.692,311.077,195.317,311.077,195.317Z" transform="translate(-167.22 -68.594)"/>
      </g>
    </g>
    <g id="Group_2411" data-name="Group 2411" transform="translate(1013.566 2571.566)">
      <g id="Group_2406" data-name="Group 2406" transform="translate(0 0)">
        <g id="Group_2405" data-name="Group 2405" transform="translate(0 0)">
          <ellipse id="Ellipse_1071" data-name="Ellipse 1071" class="cls-4" cx="68.75" cy="68.75" rx="68.75" ry="68.75" transform="translate(115.149 190.296) rotate(-146.871)"/>
          <path id="Path_482" data-name="Path 482" class="cls-5" d="M225.148,112.438a23.851,23.851,0,0,1,2.5-3.438,68.646,68.646,0,0,0,114.694,75,23.3,23.3,0,0,1-2.188,3.75c-20.626,31.877-63.128,40.627-95,20A69.012,69.012,0,0,1,225.148,112.438Z" transform="translate(-187.547 -54.781)"/>
        </g>
        <path id="Path_483" data-name="Path 483" class="cls-6" d="M311.077,195.317a6.936,6.936,0,0,1,1.25-1.563c.625-1.25,2.188-2.5,3.125-5a55.6,55.6,0,0,0,3.75-8.438,56.977,56.977,0,0,0,2.813-11.563,73.478,73.478,0,0,0,0-14.376,50.311,50.311,0,0,0-4.063-15.626,59.574,59.574,0,0,0-22.189-26.876,69.4,69.4,0,0,0-16.251-7.188,59.485,59.485,0,0,0-33.127.313,63.848,63.848,0,0,0-13.126,5.938,46.2,46.2,0,0,0-9.375,7.188c-2.5,2.5-4.688,4.688-5.938,6.875a24.653,24.653,0,0,0-3.125,5l-.938,1.875a11.283,11.283,0,0,0,1.25-1.563c.938-.938,2.188-2.5,3.75-4.375s4.063-3.75,6.563-5.938a87.692,87.692,0,0,1,9.688-5.938,49.116,49.116,0,0,1,12.5-4.375,55.765,55.765,0,0,1,14.688-1.563c5,0,10.313,1.25,15.313,2.5a56.92,56.92,0,0,1,14.688,6.875A73.986,73.986,0,0,1,304.2,127.814a58.667,58.667,0,0,1,8.438,13.126A82.505,82.505,0,0,1,317.327,155a48.154,48.154,0,0,1,.938,13.126,108.647,108.647,0,0,1-1.563,11.251,71.98,71.98,0,0,1-2.5,8.438,48.8,48.8,0,0,0-2.188,5.313C311.39,194.692,311.077,195.317,311.077,195.317Z" transform="translate(-167.22 -68.594)"/>
      </g>
      <g id="Group_2408" data-name="Group 2408" transform="translate(189.944 0)">
        <g id="Group_2407" data-name="Group 2407" transform="translate(0 0)">
          <path id="Path_484" data-name="Path 484" class="cls-4" d="M68.75,0A68.75,68.75,0,1,1,0,68.75,68.75,68.75,0,0,1,68.75,0Z" transform="translate(115.149 190.296) rotate(-146.871)"/>
          <path id="Path_485" data-name="Path 485" class="cls-5" d="M225.148,112.438a23.851,23.851,0,0,1,2.5-3.438,68.646,68.646,0,0,0,114.694,75,23.3,23.3,0,0,1-2.188,3.75c-20.626,31.877-63.128,40.627-95,20A69.012,69.012,0,0,1,225.148,112.438Z" transform="translate(-187.547 -54.781)"/>
        </g>
        <path id="Path_486" data-name="Path 486" class="cls-6" d="M311.077,195.317a6.936,6.936,0,0,1,1.25-1.563c.625-1.25,2.188-2.5,3.125-5a55.6,55.6,0,0,0,3.75-8.438,56.977,56.977,0,0,0,2.813-11.563,73.478,73.478,0,0,0,0-14.376,50.311,50.311,0,0,0-4.063-15.626,59.574,59.574,0,0,0-22.189-26.876,69.4,69.4,0,0,0-16.251-7.188,59.485,59.485,0,0,0-33.127.313,63.848,63.848,0,0,0-13.126,5.938,46.2,46.2,0,0,0-9.375,7.188c-2.5,2.5-4.688,4.688-5.938,6.875a24.653,24.653,0,0,0-3.125,5l-.938,1.875a11.283,11.283,0,0,0,1.25-1.563c.938-.938,2.188-2.5,3.75-4.375s4.063-3.75,6.563-5.938a87.692,87.692,0,0,1,9.688-5.938,49.116,49.116,0,0,1,12.5-4.375,55.765,55.765,0,0,1,14.688-1.563c5,0,10.313,1.25,15.313,2.5a56.92,56.92,0,0,1,14.688,6.875A73.986,73.986,0,0,1,304.2,127.814a58.667,58.667,0,0,1,8.438,13.126A82.505,82.505,0,0,1,317.327,155a48.154,48.154,0,0,1,.938,13.126,108.647,108.647,0,0,1-1.563,11.251,71.98,71.98,0,0,1-2.5,8.438,48.8,48.8,0,0,0-2.188,5.313C311.39,194.692,311.077,195.317,311.077,195.317Z" transform="translate(-167.22 -68.594)"/>
      </g>
      <g id="Group_2410" data-name="Group 2410" transform="translate(379.887 0)">
        <g id="Group_2409" data-name="Group 2409" transform="translate(0 0)">
          <path id="Path_487" data-name="Path 487" class="cls-4" d="M68.75,0A68.75,68.75,0,1,1,0,68.75,68.75,68.75,0,0,1,68.75,0Z" transform="translate(115.149 190.296) rotate(-146.871)"/>
          <path id="Path_488" data-name="Path 488" class="cls-5" d="M225.148,112.438a23.851,23.851,0,0,1,2.5-3.438,68.646,68.646,0,0,0,114.694,75,23.3,23.3,0,0,1-2.188,3.75c-20.626,31.877-63.128,40.627-95,20A69.012,69.012,0,0,1,225.148,112.438Z" transform="translate(-187.547 -54.781)"/>
        </g>
        <path id="Path_489" data-name="Path 489" class="cls-6" d="M311.077,195.317a6.936,6.936,0,0,1,1.25-1.563c.625-1.25,2.188-2.5,3.125-5a55.6,55.6,0,0,0,3.75-8.438,56.977,56.977,0,0,0,2.813-11.563,73.478,73.478,0,0,0,0-14.376,50.311,50.311,0,0,0-4.063-15.626,59.574,59.574,0,0,0-22.189-26.876,69.4,69.4,0,0,0-16.251-7.188,59.485,59.485,0,0,0-33.127.313,63.848,63.848,0,0,0-13.126,5.938,46.2,46.2,0,0,0-9.375,7.188c-2.5,2.5-4.688,4.688-5.938,6.875a24.653,24.653,0,0,0-3.125,5l-.938,1.875a11.283,11.283,0,0,0,1.25-1.563c.938-.938,2.188-2.5,3.75-4.375s4.063-3.75,6.563-5.938a87.692,87.692,0,0,1,9.688-5.938,49.116,49.116,0,0,1,12.5-4.375,55.765,55.765,0,0,1,14.688-1.563c5,0,10.313,1.25,15.313,2.5a56.92,56.92,0,0,1,14.688,6.875A73.986,73.986,0,0,1,304.2,127.814a58.667,58.667,0,0,1,8.438,13.126A82.505,82.505,0,0,1,317.327,155a48.154,48.154,0,0,1,.938,13.126,108.647,108.647,0,0,1-1.563,11.251,71.98,71.98,0,0,1-2.5,8.438,48.8,48.8,0,0,0-2.188,5.313C311.39,194.692,311.077,195.317,311.077,195.317Z" transform="translate(-167.22 -68.594)"/>
      </g>
    </g>
  </g>
</svg>
