<svg xmlns="http://www.w3.org/2000/svg" viewBox="1081.639 7006.122 627.022 400.957">
  <defs>
    <style>
      .cls-1 {
        fill: #404041;
      }

      .cls-1, .cls-10, .cls-2, .cls-5, .cls-9 {
        fill-rule: evenodd;
      }

      .cls-2 {
        fill: #a15641;
      }

      .cls-3 {
        fill: #58595b;
      }

      .cls-10, .cls-4 {
        fill: #414042;
      }

      .cls-5 {
        fill: #e6e7e8;
      }

      .cls-6 {
        fill: #bbbdbf;
      }

      .cls-7 {
        fill: #b98a22;
      }

      .cls-8, .cls-9 {
        fill: #a6a8ab;
      }
    </style>
  </defs>
  <g id="Group_2437" data-name="Group 2437" transform="translate(1081.639 7006.122)">
    <g id="Group_2436" data-name="Group 2436" transform="translate(45.454 366.039)">
      <path id="Path_517" data-name="Path 517" class="cls-1" d="M19.314,121.6H75.3a4.115,4.115,0,0,1,4.214,4.214V152.3a4.115,4.115,0,0,1-4.214,4.214H19.314A4.115,4.115,0,0,1,15.1,152.3v-26.49A4.532,4.532,0,0,1,19.314,121.6Z" transform="translate(-15.1 -121.6)"/>
      <path id="Path_518" data-name="Path 518" class="cls-1" d="M176.014,121.6H232a4.115,4.115,0,0,1,4.214,4.214V152.3A4.115,4.115,0,0,1,232,156.518h-55.99A4.115,4.115,0,0,1,171.8,152.3v-26.49A4.305,4.305,0,0,1,176.014,121.6Z" transform="translate(299.896 -121.6)"/>
    </g>
    <path id="Path_519" data-name="Path 519" class="cls-2" d="M17.158,0H609.864a17.347,17.347,0,0,1,17.158,17.158V362.727a17.347,17.347,0,0,1-17.158,17.158H17.158A17.347,17.347,0,0,1,0,362.727V17.158A17.347,17.347,0,0,1,17.158,0Z"/>
    <rect id="Rectangle_57" data-name="Rectangle 57" class="cls-3" width="469.589" height="308.845" transform="translate(45.454 41.541)"/>
    <rect id="Rectangle_58" data-name="Rectangle 58" class="cls-4" width="469.589" height="62.913" transform="translate(45.454 41.541)"/>
    <path id="Path_520" data-name="Path 520" class="cls-5" d="M55.316,17.4H302.152a4.755,4.755,0,0,1,4.816,4.816V49.007a4.755,4.755,0,0,1-4.816,4.816H55.316A4.755,4.755,0,0,1,50.5,49.007V22.216A4.755,4.755,0,0,1,55.316,17.4Z" transform="translate(101.514 34.977)"/>
    <rect id="Rectangle_59" data-name="Rectangle 59" class="cls-6" width="469.589" height="5.719" transform="translate(45.454 196.264)"/>
    <g id="Group_2438" data-name="Group 2438">
      <rect id="Rectangle_61" data-name="Rectangle 61" class="cls-4" width="447.589" height="17.719" transform="translate(56.454 178.264)"/>
      <path id="Path_527" data-name="Path 527" class="cls-7" d="M0,0H104.589V7.719H0Z" transform="translate(71.454 164.264)"/>
      <path id="Path_528" data-name="Path 528" class="cls-7" d="M0,0H104.589V7.719H0Z" transform="translate(228.454 164.264)"/>
      <path id="Path_529" data-name="Path 529" class="cls-7" d="M0,0H104.589V7.719H0Z" transform="translate(389.454 164.264)"/>
      <rect id="Rectangle_62" data-name="Rectangle 62" class="cls-8" width="458.589" height="5.719" transform="translate(51.454 172.264)"/>
    </g>
    <g id="Group_2439" data-name="Group 2439" transform="translate(0 91)">
      <rect id="Rectangle_63" data-name="Rectangle 63" class="cls-4" width="447.589" height="17.719" transform="translate(56.454 178.264)"/>
      <path id="Path_530" data-name="Path 530" class="cls-7" d="M0,0H104.589V7.719H0Z" transform="translate(71.454 164.264)"/>
      <path id="Path_531" data-name="Path 531" class="cls-7" d="M0,0H104.589V7.719H0Z" transform="translate(228.454 164.264)"/>
      <path id="Path_532" data-name="Path 532" class="cls-7" d="M0,0H104.589V7.719H0Z" transform="translate(389.454 164.264)"/>
      <rect id="Rectangle_64" data-name="Rectangle 64" class="cls-8" width="458.589" height="5.719" transform="translate(51.454 172.264)"/>
    </g>
    <rect id="Rectangle_60" data-name="Rectangle 60" class="cls-6" width="469.589" height="5.719" transform="translate(45.454 286.871)"/>
    <path id="Path_521" data-name="Path 521" class="cls-9" d="M216.026,94.053A37.326,37.326,0,1,0,178.7,56.726,37.32,37.32,0,0,0,216.026,94.053Z" transform="translate(359.22 38.998)"/>
    <path id="Path_522" data-name="Path 522" class="cls-10" d="M205.975,68.851A22.275,22.275,0,1,0,183.7,46.575,22.225,22.225,0,0,0,205.975,68.851Z" transform="translate(369.271 48.848)"/>
    <path id="Path_523" data-name="Path 523" class="cls-9" d="M216.026,126.953A37.326,37.326,0,1,0,178.7,89.626,37.32,37.32,0,0,0,216.026,126.953Z" transform="translate(359.22 105.133)"/>
    <path id="Path_524" data-name="Path 524" class="cls-10" d="M205.975,101.751A22.275,22.275,0,1,0,183.7,79.475,22.225,22.225,0,0,0,205.975,101.751Z" transform="translate(369.271 114.983)"/>
    <path id="Path_525" data-name="Path 525" class="cls-9" d="M216.026,159.753A37.326,37.326,0,1,0,178.7,122.426,37.32,37.32,0,0,0,216.026,159.753Z" transform="translate(359.22 171.067)"/>
    <path id="Path_526" data-name="Path 526" class="cls-10" d="M205.975,134.651A22.275,22.275,0,1,0,183.7,112.375,22.225,22.225,0,0,0,205.975,134.651Z" transform="translate(369.271 181.118)"/>
  </g>
</svg>
