<svg xmlns="http://www.w3.org/2000/svg" viewBox="178.1 6325.485 714.9 463.028">
  <defs>
    <style>
      .cls-1 {
        fill: #414042;
      }

      .cls-2 {
        fill: #808081;
      }

      .cls-3 {
        fill: #b8babc;
      }

      .cls-4 {
        fill: #f4be67;
      }

      .cls-5 {
        fill: #eaa747;
      }

      .cls-6 {
        fill: #ffcc83;
      }

      .cls-7 {
        fill: #cc913c;
      }
    </style>
  </defs>
  <g id="Group_2427" data-name="Group 2427" transform="translate(-768.251 3974.43)">
    <g id="baking_tray_2_" transform="translate(946.351 2351.055)">
      <g id="baking_tray_3_">
        <path id="Path_490" data-name="Path 490" class="cls-1" d="M714.5,449.457a13.459,13.459,0,0,1-13.571,13.572H13.572A13.46,13.46,0,0,1,0,449.457V13.572A13.46,13.46,0,0,1,13.572,0H701.329A13.459,13.459,0,0,1,714.9,13.572V449.457Z"/>
        <path id="Path_491" data-name="Path 491" class="cls-2" d="M676.791,407.059c0,6.786-5.588,11.975-12.773,11.975H18.173c-7.185,0-12.773-5.189-12.773-11.975V18.275C5.4,11.489,10.988,6.3,18.173,6.3H664.018c7.185,0,12.773,5.588,12.773,11.975Z" transform="translate(16.155 18.847)"/>
        <path id="Path_492" data-name="Path 492" class="cls-3" d="M641.875,386.509c0,6.387-5.189,11.177-11.975,11.177H22.375c-6.387,0-11.975-5.189-11.975-11.177V20.477C10.4,14.09,15.589,9.3,22.375,9.3H629.9c6.387,0,11.975,5.189,11.975,11.177V386.509Z" transform="translate(31.113 27.822)"/>
      </g>
    </g>
    <g id="Group_2419" data-name="Group 2419" transform="translate(1013.566 2407.349)">
      <g id="Group_2414" data-name="Group 2414" transform="translate(0 0)">
        <g id="Group_2413" data-name="Group 2413" transform="translate(0 0)">
          <ellipse id="Ellipse_1072" data-name="Ellipse 1072" class="cls-4" cx="68.75" cy="68.75" rx="68.75" ry="68.75" transform="translate(115.149 190.296) rotate(-146.871)"/>
          <path id="Path_493" data-name="Path 493" class="cls-5" d="M225.148,112.438a23.851,23.851,0,0,1,2.5-3.438,68.646,68.646,0,0,0,114.694,75,23.3,23.3,0,0,1-2.188,3.75c-20.626,31.877-63.128,40.627-95,20A69.012,69.012,0,0,1,225.148,112.438Z" transform="translate(-187.547 -54.781)"/>
        </g>
        <path id="Path_494" data-name="Path 494" class="cls-6" d="M311.077,195.317a6.936,6.936,0,0,1,1.25-1.563c.625-1.25,2.188-2.5,3.125-5a55.6,55.6,0,0,0,3.75-8.438,56.977,56.977,0,0,0,2.813-11.563,73.478,73.478,0,0,0,0-14.376,50.311,50.311,0,0,0-4.063-15.626,59.574,59.574,0,0,0-22.189-26.876,69.4,69.4,0,0,0-16.251-7.188,59.485,59.485,0,0,0-33.127.313,63.848,63.848,0,0,0-13.126,5.938,46.2,46.2,0,0,0-9.375,7.188c-2.5,2.5-4.688,4.688-5.938,6.875a24.653,24.653,0,0,0-3.125,5l-.938,1.875a11.283,11.283,0,0,0,1.25-1.563c.938-.938,2.188-2.5,3.75-4.375s4.063-3.75,6.563-5.938a87.692,87.692,0,0,1,9.688-5.938,49.116,49.116,0,0,1,12.5-4.375,55.765,55.765,0,0,1,14.688-1.563c5,0,10.313,1.25,15.313,2.5a56.92,56.92,0,0,1,14.688,6.875A73.986,73.986,0,0,1,304.2,127.814a58.667,58.667,0,0,1,8.438,13.126A82.505,82.505,0,0,1,317.327,155a48.154,48.154,0,0,1,.938,13.126,108.647,108.647,0,0,1-1.563,11.251,71.98,71.98,0,0,1-2.5,8.438,48.8,48.8,0,0,0-2.188,5.313C311.39,194.692,311.077,195.317,311.077,195.317Z" transform="translate(-167.22 -68.594)"/>
      </g>
      <g id="Group_2416" data-name="Group 2416" transform="translate(189.944 0)">
        <g id="Group_2415" data-name="Group 2415" transform="translate(0 0)">
          <path id="Path_495" data-name="Path 495" class="cls-4" d="M68.75,0A68.75,68.75,0,1,1,0,68.75,68.75,68.75,0,0,1,68.75,0Z" transform="translate(115.149 190.296) rotate(-146.871)"/>
          <path id="Path_496" data-name="Path 496" class="cls-5" d="M225.148,112.438a23.851,23.851,0,0,1,2.5-3.438,68.646,68.646,0,0,0,114.694,75,23.3,23.3,0,0,1-2.188,3.75c-20.626,31.877-63.128,40.627-95,20A69.012,69.012,0,0,1,225.148,112.438Z" transform="translate(-187.547 -54.781)"/>
        </g>
        <path id="Path_497" data-name="Path 497" class="cls-6" d="M311.077,195.317a6.936,6.936,0,0,1,1.25-1.563c.625-1.25,2.188-2.5,3.125-5a55.6,55.6,0,0,0,3.75-8.438,56.977,56.977,0,0,0,2.813-11.563,73.478,73.478,0,0,0,0-14.376,50.311,50.311,0,0,0-4.063-15.626,59.574,59.574,0,0,0-22.189-26.876,69.4,69.4,0,0,0-16.251-7.188,59.485,59.485,0,0,0-33.127.313,63.848,63.848,0,0,0-13.126,5.938,46.2,46.2,0,0,0-9.375,7.188c-2.5,2.5-4.688,4.688-5.938,6.875a24.653,24.653,0,0,0-3.125,5l-.938,1.875a11.283,11.283,0,0,0,1.25-1.563c.938-.938,2.188-2.5,3.75-4.375s4.063-3.75,6.563-5.938a87.692,87.692,0,0,1,9.688-5.938,49.116,49.116,0,0,1,12.5-4.375,55.765,55.765,0,0,1,14.688-1.563c5,0,10.313,1.25,15.313,2.5a56.92,56.92,0,0,1,14.688,6.875A73.986,73.986,0,0,1,304.2,127.814a58.667,58.667,0,0,1,8.438,13.126A82.505,82.505,0,0,1,317.327,155a48.154,48.154,0,0,1,.938,13.126,108.647,108.647,0,0,1-1.563,11.251,71.98,71.98,0,0,1-2.5,8.438,48.8,48.8,0,0,0-2.188,5.313C311.39,194.692,311.077,195.317,311.077,195.317Z" transform="translate(-167.22 -68.594)"/>
      </g>
      <g id="Group_2418" data-name="Group 2418" transform="translate(379.887 0)">
        <g id="Group_2417" data-name="Group 2417" transform="translate(0 0)">
          <path id="Path_498" data-name="Path 498" class="cls-4" d="M68.75,0A68.75,68.75,0,1,1,0,68.75,68.75,68.75,0,0,1,68.75,0Z" transform="translate(115.149 190.296) rotate(-146.871)"/>
          <path id="Path_499" data-name="Path 499" class="cls-5" d="M225.148,112.438a23.851,23.851,0,0,1,2.5-3.438,68.646,68.646,0,0,0,114.694,75,23.3,23.3,0,0,1-2.188,3.75c-20.626,31.877-63.128,40.627-95,20A69.012,69.012,0,0,1,225.148,112.438Z" transform="translate(-187.547 -54.781)"/>
        </g>
        <path id="Path_500" data-name="Path 500" class="cls-6" d="M311.077,195.317a6.936,6.936,0,0,1,1.25-1.563c.625-1.25,2.188-2.5,3.125-5a55.6,55.6,0,0,0,3.75-8.438,56.977,56.977,0,0,0,2.813-11.563,73.478,73.478,0,0,0,0-14.376,50.311,50.311,0,0,0-4.063-15.626,59.574,59.574,0,0,0-22.189-26.876,69.4,69.4,0,0,0-16.251-7.188,59.485,59.485,0,0,0-33.127.313,63.848,63.848,0,0,0-13.126,5.938,46.2,46.2,0,0,0-9.375,7.188c-2.5,2.5-4.688,4.688-5.938,6.875a24.653,24.653,0,0,0-3.125,5l-.938,1.875a11.283,11.283,0,0,0,1.25-1.563c.938-.938,2.188-2.5,3.75-4.375s4.063-3.75,6.563-5.938a87.692,87.692,0,0,1,9.688-5.938,49.116,49.116,0,0,1,12.5-4.375,55.765,55.765,0,0,1,14.688-1.563c5,0,10.313,1.25,15.313,2.5a56.92,56.92,0,0,1,14.688,6.875A73.986,73.986,0,0,1,304.2,127.814a58.667,58.667,0,0,1,8.438,13.126A82.505,82.505,0,0,1,317.327,155a48.154,48.154,0,0,1,.938,13.126,108.647,108.647,0,0,1-1.563,11.251,71.98,71.98,0,0,1-2.5,8.438,48.8,48.8,0,0,0-2.188,5.313C311.39,194.692,311.077,195.317,311.077,195.317Z" transform="translate(-167.22 -68.594)"/>
      </g>
    </g>
    <g id="Group_2426" data-name="Group 2426" transform="translate(1013.566 2571.566)">
      <g id="Group_2421" data-name="Group 2421" transform="translate(0 0)">
        <g id="Group_2420" data-name="Group 2420" transform="translate(0 0)">
          <ellipse id="Ellipse_1073" data-name="Ellipse 1073" class="cls-4" cx="68.75" cy="68.75" rx="68.75" ry="68.75" transform="translate(115.149 190.296) rotate(-146.871)"/>
          <path id="Path_501" data-name="Path 501" class="cls-5" d="M225.148,112.438a23.851,23.851,0,0,1,2.5-3.438,68.646,68.646,0,0,0,114.694,75,23.3,23.3,0,0,1-2.188,3.75c-20.626,31.877-63.128,40.627-95,20A69.012,69.012,0,0,1,225.148,112.438Z" transform="translate(-187.547 -54.781)"/>
        </g>
        <path id="Path_502" data-name="Path 502" class="cls-6" d="M311.077,195.317a6.936,6.936,0,0,1,1.25-1.563c.625-1.25,2.188-2.5,3.125-5a55.6,55.6,0,0,0,3.75-8.438,56.977,56.977,0,0,0,2.813-11.563,73.478,73.478,0,0,0,0-14.376,50.311,50.311,0,0,0-4.063-15.626,59.574,59.574,0,0,0-22.189-26.876,69.4,69.4,0,0,0-16.251-7.188,59.485,59.485,0,0,0-33.127.313,63.848,63.848,0,0,0-13.126,5.938,46.2,46.2,0,0,0-9.375,7.188c-2.5,2.5-4.688,4.688-5.938,6.875a24.653,24.653,0,0,0-3.125,5l-.938,1.875a11.283,11.283,0,0,0,1.25-1.563c.938-.938,2.188-2.5,3.75-4.375s4.063-3.75,6.563-5.938a87.692,87.692,0,0,1,9.688-5.938,49.116,49.116,0,0,1,12.5-4.375,55.765,55.765,0,0,1,14.688-1.563c5,0,10.313,1.25,15.313,2.5a56.92,56.92,0,0,1,14.688,6.875A73.986,73.986,0,0,1,304.2,127.814a58.667,58.667,0,0,1,8.438,13.126A82.505,82.505,0,0,1,317.327,155a48.154,48.154,0,0,1,.938,13.126,108.647,108.647,0,0,1-1.563,11.251,71.98,71.98,0,0,1-2.5,8.438,48.8,48.8,0,0,0-2.188,5.313C311.39,194.692,311.077,195.317,311.077,195.317Z" transform="translate(-167.22 -68.594)"/>
      </g>
      <g id="Group_2423" data-name="Group 2423" transform="translate(189.944 0)">
        <g id="Group_2422" data-name="Group 2422" transform="translate(0 0)">
          <path id="Path_503" data-name="Path 503" class="cls-4" d="M68.75,0A68.75,68.75,0,1,1,0,68.75,68.75,68.75,0,0,1,68.75,0Z" transform="translate(115.149 190.296) rotate(-146.871)"/>
          <path id="Path_504" data-name="Path 504" class="cls-5" d="M225.148,112.438a23.851,23.851,0,0,1,2.5-3.438,68.646,68.646,0,0,0,114.694,75,23.3,23.3,0,0,1-2.188,3.75c-20.626,31.877-63.128,40.627-95,20A69.012,69.012,0,0,1,225.148,112.438Z" transform="translate(-187.547 -54.781)"/>
        </g>
        <path id="Path_505" data-name="Path 505" class="cls-6" d="M311.077,195.317a6.936,6.936,0,0,1,1.25-1.563c.625-1.25,2.188-2.5,3.125-5a55.6,55.6,0,0,0,3.75-8.438,56.977,56.977,0,0,0,2.813-11.563,73.478,73.478,0,0,0,0-14.376,50.311,50.311,0,0,0-4.063-15.626,59.574,59.574,0,0,0-22.189-26.876,69.4,69.4,0,0,0-16.251-7.188,59.485,59.485,0,0,0-33.127.313,63.848,63.848,0,0,0-13.126,5.938,46.2,46.2,0,0,0-9.375,7.188c-2.5,2.5-4.688,4.688-5.938,6.875a24.653,24.653,0,0,0-3.125,5l-.938,1.875a11.283,11.283,0,0,0,1.25-1.563c.938-.938,2.188-2.5,3.75-4.375s4.063-3.75,6.563-5.938a87.692,87.692,0,0,1,9.688-5.938,49.116,49.116,0,0,1,12.5-4.375,55.765,55.765,0,0,1,14.688-1.563c5,0,10.313,1.25,15.313,2.5a56.92,56.92,0,0,1,14.688,6.875A73.986,73.986,0,0,1,304.2,127.814a58.667,58.667,0,0,1,8.438,13.126A82.505,82.505,0,0,1,317.327,155a48.154,48.154,0,0,1,.938,13.126,108.647,108.647,0,0,1-1.563,11.251,71.98,71.98,0,0,1-2.5,8.438,48.8,48.8,0,0,0-2.188,5.313C311.39,194.692,311.077,195.317,311.077,195.317Z" transform="translate(-167.22 -68.594)"/>
      </g>
      <g id="Group_2425" data-name="Group 2425" transform="translate(379.887 0)">
        <g id="Group_2424" data-name="Group 2424" transform="translate(0 0)">
          <path id="Path_506" data-name="Path 506" class="cls-4" d="M68.75,0A68.75,68.75,0,1,1,0,68.75,68.75,68.75,0,0,1,68.75,0Z" transform="translate(115.149 190.296) rotate(-146.871)"/>
          <path id="Path_507" data-name="Path 507" class="cls-5" d="M225.148,112.438a23.851,23.851,0,0,1,2.5-3.438,68.646,68.646,0,0,0,114.694,75,23.3,23.3,0,0,1-2.188,3.75c-20.626,31.877-63.128,40.627-95,20A69.012,69.012,0,0,1,225.148,112.438Z" transform="translate(-187.547 -54.781)"/>
        </g>
        <path id="Path_508" data-name="Path 508" class="cls-6" d="M311.077,195.317a6.936,6.936,0,0,1,1.25-1.563c.625-1.25,2.188-2.5,3.125-5a55.6,55.6,0,0,0,3.75-8.438,56.977,56.977,0,0,0,2.813-11.563,73.478,73.478,0,0,0,0-14.376,50.311,50.311,0,0,0-4.063-15.626,59.574,59.574,0,0,0-22.189-26.876,69.4,69.4,0,0,0-16.251-7.188,59.485,59.485,0,0,0-33.127.313,63.848,63.848,0,0,0-13.126,5.938,46.2,46.2,0,0,0-9.375,7.188c-2.5,2.5-4.688,4.688-5.938,6.875a24.653,24.653,0,0,0-3.125,5l-.938,1.875a11.283,11.283,0,0,0,1.25-1.563c.938-.938,2.188-2.5,3.75-4.375s4.063-3.75,6.563-5.938a87.692,87.692,0,0,1,9.688-5.938,49.116,49.116,0,0,1,12.5-4.375,55.765,55.765,0,0,1,14.688-1.563c5,0,10.313,1.25,15.313,2.5a56.92,56.92,0,0,1,14.688,6.875A73.986,73.986,0,0,1,304.2,127.814a58.667,58.667,0,0,1,8.438,13.126A82.505,82.505,0,0,1,317.327,155a48.154,48.154,0,0,1,.938,13.126,108.647,108.647,0,0,1-1.563,11.251,71.98,71.98,0,0,1-2.5,8.438,48.8,48.8,0,0,0-2.188,5.313C311.39,194.692,311.077,195.317,311.077,195.317Z" transform="translate(-167.22 -68.594)"/>
      </g>
    </g>
    <g id="Group_2429" data-name="Group 2429" transform="translate(1059.656 2451.569)">
      <g id="Group_2428" data-name="Group 2428" transform="translate(0 0)">
        <circle id="Ellipse_1074" data-name="Ellipse 1074" class="cls-5" cx="36.659" cy="36.659" r="36.659" transform="translate(61.399 101.469) rotate(-146.871)"/>
        <path id="Path_509" data-name="Path 509" class="cls-7" d="M219.944,110.833A12.718,12.718,0,0,1,221.278,109a36.6,36.6,0,0,0,61.156,39.993,12.429,12.429,0,0,1-1.166,2,36.651,36.651,0,1,1-61.323-40.16Z" transform="translate(-199.895 -80.09)"/>
      </g>
      <path id="Path_510" data-name="Path 510" class="cls-6" d="M265.709,151.992a3.7,3.7,0,0,1,.667-.833,15.205,15.205,0,0,0,1.666-2.666,29.644,29.644,0,0,0,2-4.5,30.383,30.383,0,0,0,1.5-6.166,39.179,39.179,0,0,0,0-7.665,26.828,26.828,0,0,0-2.166-8.332A31.765,31.765,0,0,0,257.544,107.5a37.006,37.006,0,0,0-8.665-3.833,31.719,31.719,0,0,0-17.664.167,34.045,34.045,0,0,0-7,3.166,24.633,24.633,0,0,0-5,3.833,19.7,19.7,0,0,0-3.166,3.666,13.146,13.146,0,0,0-1.666,2.666l-.5,1a6.017,6.017,0,0,0,.667-.833c.5-.5,1.166-1.333,2-2.333a34.875,34.875,0,0,1,3.5-3.166,46.757,46.757,0,0,1,5.166-3.166,26.189,26.189,0,0,1,6.666-2.333,29.734,29.734,0,0,1,7.832-.833,34.8,34.8,0,0,1,8.165,1.333,30.35,30.35,0,0,1,7.832,3.666,39.449,39.449,0,0,1,6.332,5.5,31.28,31.28,0,0,1,4.5,7,43.99,43.99,0,0,1,2.5,7.5,25.677,25.677,0,0,1,.5,7,57.934,57.934,0,0,1-.833,6,38.382,38.382,0,0,1-1.333,4.5,26.015,26.015,0,0,0-1.166,2.833C265.876,151.658,265.709,151.992,265.709,151.992Z" transform="translate(-189.002 -84.421)"/>
    </g>
    <g id="Group_2431" data-name="Group 2431" transform="translate(1239.656 2451.569)">
      <g id="Group_2430" data-name="Group 2430" transform="translate(0 0)">
        <circle id="Ellipse_1075" data-name="Ellipse 1075" class="cls-5" cx="36.659" cy="36.659" r="36.659" transform="translate(61.399 101.469) rotate(-146.871)"/>
        <path id="Path_511" data-name="Path 511" class="cls-7" d="M219.944,110.833A12.718,12.718,0,0,1,221.278,109a36.6,36.6,0,0,0,61.156,39.993,12.429,12.429,0,0,1-1.166,2,36.651,36.651,0,1,1-61.323-40.16Z" transform="translate(-199.895 -80.09)"/>
      </g>
      <g id="Group_2432" data-name="Group 2432" transform="translate(206 0)">
        <circle id="Ellipse_1076" data-name="Ellipse 1076" class="cls-5" cx="36.659" cy="36.659" r="36.659" transform="translate(61.399 101.469) rotate(-146.871)"/>
        <path id="Path_513" data-name="Path 513" class="cls-7" d="M219.944,110.833A12.718,12.718,0,0,1,221.278,109a36.6,36.6,0,0,0,61.156,39.993,12.429,12.429,0,0,1-1.166,2,36.651,36.651,0,1,1-61.323-40.16Z" transform="translate(-199.895 -80.09)"/>
      </g>
      <g id="Group_2433" data-name="Group 2433" transform="translate(15 164)">
        <circle id="Ellipse_1077" data-name="Ellipse 1077" class="cls-5" cx="36.659" cy="36.659" r="36.659" transform="translate(61.399 101.469) rotate(-146.871)"/>
        <path id="Path_514" data-name="Path 514" class="cls-7" d="M219.944,110.833A12.718,12.718,0,0,1,221.278,109a36.6,36.6,0,0,0,61.156,39.993,12.429,12.429,0,0,1-1.166,2,36.651,36.651,0,1,1-61.323-40.16Z" transform="translate(-199.895 -80.09)"/>
      </g>
      <g id="Group_2434" data-name="Group 2434" transform="translate(-187 164)">
        <circle id="Ellipse_1078" data-name="Ellipse 1078" class="cls-5" cx="36.659" cy="36.659" r="36.659" transform="translate(61.399 101.469) rotate(-146.871)"/>
        <path id="Path_515" data-name="Path 515" class="cls-7" d="M219.944,110.833A12.718,12.718,0,0,1,221.278,109a36.6,36.6,0,0,0,61.156,39.993,12.429,12.429,0,0,1-1.166,2,36.651,36.651,0,1,1-61.323-40.16Z" transform="translate(-199.895 -80.09)"/>
      </g>
      <g id="Group_2435" data-name="Group 2435" transform="translate(197 164)">
        <circle id="Ellipse_1079" data-name="Ellipse 1079" class="cls-5" cx="36.659" cy="36.659" r="36.659" transform="translate(61.399 101.469) rotate(-146.871)"/>
        <path id="Path_516" data-name="Path 516" class="cls-7" d="M219.944,110.833A12.718,12.718,0,0,1,221.278,109a36.6,36.6,0,0,0,61.156,39.993,12.429,12.429,0,0,1-1.166,2,36.651,36.651,0,1,1-61.323-40.16Z" transform="translate(-199.895 -80.09)"/>
      </g>
      <path id="Path_512" data-name="Path 512" class="cls-6" d="M265.709,151.992a3.7,3.7,0,0,1,.667-.833,15.205,15.205,0,0,0,1.666-2.666,29.644,29.644,0,0,0,2-4.5,30.383,30.383,0,0,0,1.5-6.166,39.179,39.179,0,0,0,0-7.665,26.828,26.828,0,0,0-2.166-8.332A31.765,31.765,0,0,0,257.544,107.5a37.006,37.006,0,0,0-8.665-3.833,31.719,31.719,0,0,0-17.664.167,34.045,34.045,0,0,0-7,3.166,24.633,24.633,0,0,0-5,3.833,19.7,19.7,0,0,0-3.166,3.666,13.146,13.146,0,0,0-1.666,2.666l-.5,1a6.017,6.017,0,0,0,.667-.833c.5-.5,1.166-1.333,2-2.333a34.875,34.875,0,0,1,3.5-3.166,46.757,46.757,0,0,1,5.166-3.166,26.189,26.189,0,0,1,6.666-2.333,29.734,29.734,0,0,1,7.832-.833,34.8,34.8,0,0,1,8.165,1.333,30.35,30.35,0,0,1,7.832,3.666,39.449,39.449,0,0,1,6.332,5.5,31.28,31.28,0,0,1,4.5,7,43.99,43.99,0,0,1,2.5,7.5,25.677,25.677,0,0,1,.5,7,57.934,57.934,0,0,1-.833,6,38.382,38.382,0,0,1-1.333,4.5,26.015,26.015,0,0,0-1.166,2.833C265.876,151.658,265.709,151.992,265.709,151.992Z" transform="translate(-189.002 -84.421)"/>
    </g>
  </g>
</svg>
