<svg xmlns="http://www.w3.org/2000/svg" viewBox="265.639 4993.122 627.022 400.957">
  <defs>
    <style>
      .cls-1 {
        fill: #404041;
      }

      .cls-1, .cls-2, .cls-5, .cls-7, .cls-8 {
        fill-rule: evenodd;
      }

      .cls-2 {
        fill: #a15641;
      }

      .cls-3 {
        fill: #58595b;
      }

      .cls-4, .cls-8 {
        fill: #414042;
      }

      .cls-5 {
        fill: #e6e7e8;
      }

      .cls-6 {
        fill: #bbbdbf;
      }

      .cls-7 {
        fill: #a6a8ab;
      }
    </style>
  </defs>
  <g id="Group_2397" data-name="Group 2397" transform="translate(265.639 4993.122)">
    <g id="Group_2396" data-name="Group 2396" transform="translate(45.454 366.039)">
      <path id="Path_461" data-name="Path 461" class="cls-1" d="M19.314,121.6H75.3a4.115,4.115,0,0,1,4.214,4.214V152.3a4.115,4.115,0,0,1-4.214,4.214H19.314A4.115,4.115,0,0,1,15.1,152.3v-26.49A4.532,4.532,0,0,1,19.314,121.6Z" transform="translate(-15.1 -121.6)"/>
      <path id="Path_462" data-name="Path 462" class="cls-1" d="M176.014,121.6H232a4.115,4.115,0,0,1,4.214,4.214V152.3A4.115,4.115,0,0,1,232,156.518h-55.99A4.115,4.115,0,0,1,171.8,152.3v-26.49A4.305,4.305,0,0,1,176.014,121.6Z" transform="translate(299.896 -121.6)"/>
    </g>
    <path id="Path_463" data-name="Path 463" class="cls-2" d="M17.158,0H609.864a17.347,17.347,0,0,1,17.158,17.158V362.727a17.347,17.347,0,0,1-17.158,17.158H17.158A17.347,17.347,0,0,1,0,362.727V17.158A17.347,17.347,0,0,1,17.158,0Z"/>
    <rect id="Rectangle_53" data-name="Rectangle 53" class="cls-3" width="469.589" height="308.845" transform="translate(45.454 41.541)"/>
    <rect id="Rectangle_54" data-name="Rectangle 54" class="cls-4" width="469.589" height="62.913" transform="translate(45.454 41.541)"/>
    <path id="Path_464" data-name="Path 464" class="cls-5" d="M55.316,17.4H302.152a4.755,4.755,0,0,1,4.816,4.816V49.007a4.755,4.755,0,0,1-4.816,4.816H55.316A4.755,4.755,0,0,1,50.5,49.007V22.216A4.755,4.755,0,0,1,55.316,17.4Z" transform="translate(101.514 34.977)"/>
    <rect id="Rectangle_55" data-name="Rectangle 55" class="cls-6" width="469.589" height="5.719" transform="translate(45.454 196.264)"/>
    <rect id="Rectangle_56" data-name="Rectangle 56" class="cls-6" width="469.589" height="5.719" transform="translate(45.454 286.871)"/>
    <path id="Path_465" data-name="Path 465" class="cls-7" d="M216.026,94.053A37.326,37.326,0,1,0,178.7,56.726,37.32,37.32,0,0,0,216.026,94.053Z" transform="translate(359.22 38.998)"/>
    <path id="Path_466" data-name="Path 466" class="cls-8" d="M205.975,68.851A22.275,22.275,0,1,0,183.7,46.575,22.225,22.225,0,0,0,205.975,68.851Z" transform="translate(369.271 48.848)"/>
    <path id="Path_467" data-name="Path 467" class="cls-7" d="M216.026,126.953A37.326,37.326,0,1,0,178.7,89.626,37.32,37.32,0,0,0,216.026,126.953Z" transform="translate(359.22 105.133)"/>
    <path id="Path_468" data-name="Path 468" class="cls-8" d="M205.975,101.751A22.275,22.275,0,1,0,183.7,79.475,22.225,22.225,0,0,0,205.975,101.751Z" transform="translate(369.271 114.983)"/>
    <path id="Path_469" data-name="Path 469" class="cls-7" d="M216.026,159.753A37.326,37.326,0,1,0,178.7,122.426,37.32,37.32,0,0,0,216.026,159.753Z" transform="translate(359.22 171.067)"/>
    <path id="Path_470" data-name="Path 470" class="cls-8" d="M205.975,134.651A22.275,22.275,0,1,0,183.7,112.375,22.225,22.225,0,0,0,205.975,134.651Z" transform="translate(369.271 181.118)"/>
  </g>
</svg>
